<?xml version="1.0" encoding="UTF-8" standalone="no"?>
<!-- Created with Inkscape (http://www.inkscape.org/) -->
<svg
   xmlns:svg="http://www.w3.org/2000/svg"
   xmlns="http://www.w3.org/2000/svg"
   xmlns:xlink="http://www.w3.org/1999/xlink"
   version="1.0"
   width="350"
   height="250"
   id="svg2">
  <defs
     id="defs4">
    <marker
       refX="0"
       refY="0"
       orient="auto"
       id="Arrow1Mstart"
       style="overflow:visible">
      <path
         d="M 0,0 L 5,-5 L -12.5,0 L 5,5 L 0,0 z"
         transform="matrix(0.4,0,0,0.4,4,0)"
         id="path3217"
         style="fill-rule:evenodd;stroke:#000000;stroke-width:1pt;marker-start:none" />
    </marker>
    <marker
       refX="0"
       refY="0"
       orient="auto"
       id="Arrow2Mend"
       style="overflow:visible">
      <path
         d="M 8.7185878,4.0337352 L -2.2072895,0.016013256 L 8.7185884,-4.0017078 C 6.97309,-1.6296469 6.9831476,1.6157441 8.7185878,4.0337352 z"
         transform="scale(-0.6,-0.6)"
         id="path3238"
         style="font-size:12px;fill-rule:evenodd;stroke-width:0.625;stroke-linejoin:round" />
    </marker>
    <linearGradient
       id="linearGradient3186">
      <stop
         id="stop3188"
         style="stop-color:#008000;stop-opacity:0"
         offset="0" />
      <stop
         id="stop3196"
         style="stop-color:#008000;stop-opacity:0.24705882"
         offset="0.03" />
      <stop
         id="stop3194"
         style="stop-color:#008000;stop-opacity:0.24705882"
         offset="0.5" />
      <stop
         id="stop3198"
         style="stop-color:#008000;stop-opacity:0.24705882"
         offset="0.97000003" />
      <stop
         id="stop3190"
         style="stop-color:#008000;stop-opacity:0"
         offset="1" />
    </linearGradient>
    <linearGradient
       id="linearGradient3171">
      <stop
         id="stop3173"
         style="stop-color:#800000;stop-opacity:0.62352943"
         offset="0" />
      <stop
         id="stop3175"
         style="stop-color:#800000;stop-opacity:0"
         offset="1" />
    </linearGradient>
    <linearGradient
       x1="384.19131"
       y1="480.76999"
       x2="384.19131"
       y2="521.56934"
       id="linearGradient3177"
       xlink:href="#linearGradient3171"
       gradientUnits="userSpaceOnUse"
       gradientTransform="matrix(1,0,0,0.7727273,-38,81.854965)" />
    <linearGradient
       x1="272.9346"
       y1="420.17526"
       x2="515.1582"
       y2="505.03336"
       id="linearGradient3192"
       xlink:href="#linearGradient3186"
       gradientUnits="userSpaceOnUse"
       gradientTransform="translate(-38.193628,-27.410935)" />
  </defs>
  <g
     transform="translate(-187.14285,-250.21933)"
     id="layer1">
    <path
       d="M 491.36745,453.35906 L 533.92252,332.16963 L 251.82476,332.16963 L 209.26969,453.35906 L 491.36745,453.35906 z"
       id="path3181"
       style="fill:url(#linearGradient3192);fill-opacity:1;fill-rule:evenodd;stroke:none;stroke-width:1;stroke-linecap:butt;stroke-linejoin:miter;stroke-miterlimit:4;stroke-dashoffset:1.56000006;stroke-opacity:1" />
    <rect
       width="264.58151"
       height="31.453749"
       x="216.67589"
       y="453.35904"
       id="rect2396"
       style="opacity:1;fill:url(#linearGradient3177);fill-opacity:1;fill-rule:evenodd;stroke:none;stroke-width:1;stroke-linecap:square;stroke-linejoin:miter;stroke-miterlimit:4;stroke-dasharray:none;stroke-dashoffset:1.56000006;stroke-opacity:1" />
    <path
       d="M 329.03978,453.8084 L 329.03978,287.0647"
       id="path3204"
       style="fill:none;fill-rule:evenodd;stroke:#000000;stroke-width:2;stroke-linecap:butt;stroke-linejoin:miter;stroke-miterlimit:4;stroke-dasharray:none;stroke-opacity:1" />
    <path
       d="M 481.2574,453.35906 L 216.67589,453.35906"
       id="rect2398"
       style="fill:#000080;fill-opacity:1;fill-rule:evenodd;stroke:#800000;stroke-width:2;stroke-linecap:butt;stroke-linejoin:miter;stroke-miterlimit:4;stroke-dasharray:none;stroke-dashoffset:1.56000006;stroke-opacity:1" />
    <path
       d="M 523.81247,332.16963 L 259.23096,332.16963"
       id="path3179"
       style="fill:#000080;fill-opacity:1;fill-rule:evenodd;stroke:#000080;stroke-width:2;stroke-linecap:butt;stroke-linejoin:miter;stroke-miterlimit:4;stroke-dasharray:none;stroke-dashoffset:1.56000006;stroke-opacity:1" />
    <text
       x="348.79672"
       y="484.22498"
       id="text3200"
       xml:space="preserve"
       style="font-size:12px;font-style:normal;font-weight:normal;text-align:center;text-anchor:middle;fill:#800000;fill-opacity:1;stroke:none;stroke-width:1px;stroke-linecap:butt;stroke-linejoin:miter;stroke-opacity:1;font-family:Arial"><tspan
         x="348.79672"
         y="484.22498"
         id="tspan3202"
         style="font-size:18px;fill:#800000">boundary plate (2D, stationary)</tspan></text>
    <path
       d="M 324.1993,291.527 L 329.02056,278.41594 L 333.84183,291.527 C 330.99536,289.4324 327.10089,289.44447 324.1993,291.527 z"
       id="path3992"
       style="font-size:12px;fill-rule:evenodd;stroke-width:0.625;stroke-linejoin:round" />
    <path
       d="M 445.42643,332.16963 L 328.74563,332.16963"
       id="path3996"
       style="fill:#000080;fill-opacity:1;fill-rule:evenodd;stroke:#000000;stroke-width:2;stroke-linecap:butt;stroke-linejoin:miter;stroke-miterlimit:4;stroke-dasharray:none;stroke-dashoffset:1.56000006;stroke-opacity:1" />
    <path
       d="M 445.6515,332.16963 L 441.6515,336.16963 L 455.6515,332.16963 L 441.6515,328.16963 L 445.6515,332.16963 z"
       id="path5044"
       style="fill-rule:evenodd;stroke:#000000;stroke-width:0.8pt;marker-start:none" />
    <path
       d="M 355.02555,423.0617 L 328.74563,423.0617"
       id="path5050"
       style="fill:#000080;fill-opacity:1;fill-rule:evenodd;stroke:#000000;stroke-width:2;stroke-linecap:butt;stroke-linejoin:miter;stroke-miterlimit:4;stroke-dasharray:none;stroke-dashoffset:1.56000006;stroke-opacity:1" />
    <path
       d="M 414.81936,362.46699 L 328.74563,362.46699"
       id="path5052"
       style="fill:#000080;fill-opacity:1;fill-rule:evenodd;stroke:#000000;stroke-width:2;stroke-linecap:butt;stroke-linejoin:miter;stroke-miterlimit:4;stroke-dasharray:none;stroke-dashoffset:1.56000006;stroke-opacity:1" />
    <path
       d="M 382.68396,392.76435 L 328.74563,392.76435"
       id="path5054"
       style="fill:#000080;fill-opacity:1;fill-rule:evenodd;stroke:#000000;stroke-width:2;stroke-linecap:butt;stroke-linejoin:miter;stroke-miterlimit:4;stroke-dasharray:none;stroke-dashoffset:1.56000006;stroke-opacity:1" />
    <path
       d="M 328.74563,453.35906 L 456.1766,332.16963"
       id="path5048"
       style="fill:#000080;fill-opacity:1;fill-rule:evenodd;stroke:#008080;stroke-width:1.5;stroke-linecap:butt;stroke-linejoin:miter;stroke-miterlimit:4;stroke-dasharray:none;stroke-dashoffset:1.56000006;stroke-opacity:1" />
    <path
       d="M 380.26764,392.76434 L 376.26764,396.76434 L 390.26764,392.76434 L 376.26764,388.76434 L 380.26764,392.76434 z"
       id="path5059"
       style="fill-rule:evenodd;stroke:#000000;stroke-width:0.8pt;marker-start:none" />
    <path
       d="M 412.41616,362.46698 L 408.41616,366.46698 L 422.41616,362.46698 L 408.41616,358.46698 L 412.41616,362.46698 z"
       id="path5061"
       style="fill-rule:evenodd;stroke:#000000;stroke-width:0.8pt;marker-start:none" />
    <path
       d="M 349.34246,423.0617 L 345.34246,427.0617 L 359.34246,423.0617 L 345.34246,419.0617 L 349.34246,423.0617 z"
       id="path5063"
       style="fill-rule:evenodd;stroke:#000000;stroke-width:0.8pt;marker-start:none" />
    <text
       x="382.94278"
       y="323.15796"
       id="text5065"
       xml:space="preserve"
       style="font-size:18px;font-style:normal;font-weight:normal;text-align:center;text-anchor:middle;fill:#000000;fill-opacity:1;stroke:none;stroke-width:1px;stroke-linecap:butt;stroke-linejoin:miter;stroke-opacity:1;font-family:Arial"><tspan
         x="382.94278"
         y="323.15796"
         id="tspan5067">velocity, <tspan
   id="tspan5069"
   style="font-size:18px;font-style:italic;font-variant:normal;font-weight:bold;font-stretch:normal;font-family:Times New Roman;-inkscape-font-specification:Times New Roman Bold Italic">u</tspan></tspan></text>
    <text
       x="279.16837"
       y="399.21109"
       id="text5075"
       xml:space="preserve"
       style="font-size:12px;font-style:normal;font-weight:normal;text-align:center;text-anchor:middle;fill:#008000;fill-opacity:1;stroke:none;stroke-width:1px;stroke-linecap:butt;stroke-linejoin:miter;stroke-opacity:1;font-family:Arial"><tspan
         x="279.16837"
         y="399.21109"
         id="tspan5077"
         style="font-size:18px;fill:#008000;fill-opacity:1">fluid</tspan></text>
    <text
       x="319.55511"
       y="275.67053"
       id="text5079"
       xml:space="preserve"
       style="font-size:18px;font-style:normal;font-weight:normal;text-align:start;text-anchor:start;fill:#000000;fill-opacity:1;stroke:none;stroke-width:1px;stroke-linecap:butt;stroke-linejoin:miter;stroke-opacity:1;font-family:Arial"><tspan
         x="319.55511"
         y="275.67053"
         id="tspan5081"><tspan
   id="tspan5085"
   style="font-style:italic;font-variant:normal;font-weight:normal;font-stretch:normal;font-family:Times New Roman;-inkscape-font-specification:Times New Roman Italic">y</tspan> dimension</tspan></text>
    <text
       x="256.30524"
       y="301.3349"
       id="text5089"
       xml:space="preserve"
       style="font-size:12px;font-style:normal;font-weight:normal;text-align:center;text-anchor:middle;fill:#000080;fill-opacity:1;stroke:none;stroke-width:1px;stroke-linecap:butt;stroke-linejoin:miter;stroke-opacity:1;font-family:Arial"><tspan
         x="256.30524"
         y="301.3349"
         id="tspan5091"
         style="font-size:18px;fill:#000080">boundary plate</tspan></text>
    <text
       x="256.30524"
       y="320.03946"
       id="text5093"
       xml:space="preserve"
       style="font-size:12px;font-style:normal;font-weight:normal;text-align:center;text-anchor:middle;fill:#000080;fill-opacity:1;stroke:none;stroke-width:1px;stroke-linecap:butt;stroke-linejoin:miter;stroke-opacity:1;font-family:Arial"><tspan
         x="256.30524"
         y="320.03946"
         id="tspan5095"
         style="font-size:18px;fill:#000080"> (2D, moving)</tspan></text>
    <path
       d="M 349.28,362.46698 L 352.22052,366.53467 L 341.92869,362.46698 L 352.22052,358.39929 L 349.28,362.46698 z"
       id="path5099"
       style="fill:#800080;fill-rule:evenodd;stroke:#800080;stroke-width:0.69169707pt;marker-start:none" />
    <path
       d="M 390.00647,362.46698 L 387.06595,366.53467 L 397.35778,362.46698 L 387.06595,358.39929 L 390.00647,362.46698 z"
       id="path5101"
       style="fill:#800080;fill-rule:evenodd;stroke:#800080;stroke-width:0.69169707pt;marker-start:none" />
    <path
       d="M 335.02753,350.41876 L 336.31372,350.21644 C 336.38597,350.73188 336.58709,351.12689 336.91707,351.40147 C 337.24705,351.67605 337.70829,351.81334 338.30081,351.81334 C 338.89814,351.81334 339.34132,351.69171 339.63036,351.44844 C 339.91938,351.20517 340.0639,350.91975 340.0639,350.59218 C 340.0639,350.29834 339.93624,350.06711 339.68094,349.89851 C 339.5027,349.7829 339.05951,349.63597 338.35139,349.45773 C 337.39758,349.21688 336.73642,349.00853 336.36791,348.8327 C 335.99939,348.65688 335.72,348.41361 335.52972,348.1029 C 335.33944,347.79219 335.2443,347.44897 335.2443,347.07322 C 335.2443,346.7312 335.32258,346.41447 335.47914,346.12303 C 335.6357,345.83159 335.84886,345.58953 336.11862,345.39684 C 336.32094,345.24751 336.59673,345.12106 336.94597,345.01748 C 337.29522,344.91392 337.66976,344.86213 338.06959,344.86213 C 338.67173,344.86213 339.20042,344.94884 339.65565,345.12226 C 340.11087,345.29568 340.44687,345.53052 340.66365,345.82677 C 340.88041,346.12303 341.02975,346.51925 341.11165,347.01541 L 339.83991,347.18883 C 339.78209,346.79383 339.6147,346.48553 339.33771,346.26393 C 339.06072,346.04235 338.66932,345.93155 338.16352,345.93154 C 337.56619,345.93155 337.13986,346.0303 336.88456,346.2278 C 336.62924,346.42531 336.50159,346.65654 336.50159,346.92148 C 336.50159,347.09009 336.55458,347.24183 336.66056,347.3767 C 336.76653,347.51641 336.93272,347.63202 337.15914,347.72354 C 337.2892,347.77172 337.67216,347.88251 338.30804,348.05593 C 339.22812,348.30161 339.87001,348.50273 340.23371,348.65928 C 340.5974,348.81584 340.88282,349.04346 341.08997,349.34212 C 341.2971,349.64079 341.40067,350.01171 341.40068,350.45489 C 341.40067,350.88844 341.27422,351.2967 341.02132,351.67966 C 340.76841,352.06263 340.40351,352.35889 339.92661,352.56844 C 339.44971,352.77798 338.91018,352.88276 338.30804,352.88276 C 337.31087,352.88276 336.55096,352.67562 336.0283,352.26134 C 335.50563,351.84706 335.17204,351.23287 335.02753,350.41876 L 335.02753,350.41876 z M 342.947,352.70934 L 342.947,342.11632 L 344.24764,342.11632 L 344.24764,345.91709 C 344.8546,345.21379 345.62054,344.86213 346.54544,344.86213 C 347.11387,344.86213 347.60763,344.97413 348.02673,345.19813 C 348.44582,345.42213 348.74569,345.73164 348.92634,346.12664 C 349.10698,346.52166 349.1973,347.0949 349.19731,347.84638 L 349.19731,352.70934 L 347.89667,352.70934 L 347.89667,347.84638 C 347.89666,347.19606 347.75576,346.72277 347.47396,346.42651 C 347.19215,346.13026 346.79352,345.98213 346.27809,345.98212 C 345.89271,345.98213 345.53021,346.08209 345.19061,346.282 C 344.85099,346.48192 344.60893,346.75288 344.46441,347.0949 C 344.3199,347.43692 344.24764,347.90901 344.24764,348.51115 L 344.24764,352.70934 L 342.947,352.70934 z M 356.43756,350.23812 L 357.78155,350.40431 C 357.56959,351.18952 357.17699,351.79889 356.60375,352.23244 C 356.0305,352.66599 355.29828,352.88276 354.40711,352.88276 C 353.2847,352.88276 352.39472,352.53713 351.73718,351.84586 C 351.07963,351.15459 350.75085,350.18513 350.75085,348.93747 C 350.75085,347.64647 351.08324,346.6445 351.74801,345.93154 C 352.41279,345.21861 353.27506,344.86213 354.33485,344.86213 C 355.36091,344.86213 356.1991,345.21138 356.84943,345.90987 C 357.49974,346.60837 357.8249,347.59107 357.82491,348.85799 C 357.8249,348.93507 357.82249,349.05068 357.81768,349.20483 L 352.09485,349.20483 C 352.14302,350.04784 352.38147,350.69335 352.81021,351.14134 C 353.23893,351.58934 353.77364,351.81334 354.41433,351.81334 C 354.89123,351.81334 355.29828,351.6881 355.63549,351.4376 C 355.97269,351.18711 356.24004,350.78728 356.43756,350.23812 L 356.43756,350.23812 z M 352.16711,348.13541 L 356.45201,348.13541 C 356.39419,347.48991 356.23041,347.00578 355.96065,346.68303 C 355.54637,346.18205 355.00925,345.93155 354.3493,345.93154 C 353.75196,345.93155 353.24977,346.13146 352.84272,346.53129 C 352.43567,346.93112 352.21046,347.46583 352.16711,348.13541 L 352.16711,348.13541 z M 364.42928,351.76276 C 363.94756,352.17222 363.4839,352.46125 363.03832,352.62986 C 362.59272,352.79846 362.11462,352.88276 361.604,352.88276 C 360.76099,352.88276 360.11307,352.67682 359.66026,352.26495 C 359.20744,351.85308 358.98103,351.32681 358.98103,350.68612 C 358.98103,350.31038 359.06654,349.96715 359.23755,349.65644 C 359.40856,349.34574 359.63256,349.09645 359.90955,348.90857 C 360.18654,348.72071 360.49845,348.5786 360.84529,348.48225 C 361.1006,348.41481 361.48597,348.34978 362.00142,348.28715 C 363.05156,348.16191 363.82472,348.01258 364.3209,347.83915 C 364.32571,347.66092 364.32812,347.54772 364.32812,347.49954 C 364.32812,346.96966 364.20528,346.59632 363.95961,346.37954 C 363.62722,346.0857 363.13345,345.93878 362.47832,345.93877 C 361.86653,345.93878 361.41492,346.04596 361.12348,346.26032 C 360.83204,346.47469 360.61647,346.85404 360.47677,347.39838 L 359.20503,347.22496 C 359.32065,346.68062 359.51093,346.24106 359.77587,345.90625 C 360.04082,345.57147 360.42378,345.31375 360.92477,345.13309 C 361.42576,344.95246 362.00623,344.86213 362.66619,344.86213 C 363.32132,344.86213 363.85362,344.93921 364.26309,345.09335 C 364.67255,345.24751 364.97362,345.4414 365.16632,345.67503 C 365.359,345.90867 365.49388,346.20372 365.57096,346.56019 C 365.61431,346.78179 365.63598,347.18161 365.63599,347.75967 L 365.63599,349.49386 C 365.63598,350.70298 365.66368,351.46771 365.71909,351.78805 C 365.77448,352.1084 365.88407,352.41549 366.04786,352.70934 L 364.68941,352.70934 C 364.55453,352.43958 364.46782,352.12405 364.42928,351.76276 L 364.42928,351.76276 z M 364.3209,348.85799 C 363.84881,349.05068 363.14068,349.21447 362.19651,349.34935 C 361.6618,349.42642 361.28365,349.51313 361.06206,349.60947 C 360.84047,349.70582 360.66946,349.84672 360.54903,350.03218 C 360.4286,350.21765 360.36839,350.42358 360.36839,350.64999 C 360.36839,350.99683 360.49965,351.28586 360.76219,351.51708 C 361.02473,351.74831 361.4089,351.86392 361.91471,351.86392 C 362.41569,351.86392 362.86128,351.75433 363.25148,351.53515 C 363.64167,351.31597 363.92829,351.0161 364.11135,350.63554 C 364.25104,350.34169 364.32089,349.90814 364.3209,349.33489 L 364.3209,348.85799 z M 367.64476,352.70934 L 367.64476,345.03555 L 368.81534,345.03555 L 368.81534,346.1989 C 369.11401,345.65456 369.38979,345.29568 369.64269,345.12226 C 369.89559,344.94884 370.17379,344.86213 370.47727,344.86213 C 370.91563,344.86213 371.36123,345.00183 371.81405,345.28122 L 371.36605,346.48793 C 371.04811,346.30007 370.73017,346.20613 370.41224,346.20612 C 370.12802,346.20613 369.87271,346.29164 369.64631,346.46264 C 369.4199,346.63366 369.25852,346.8709 369.16218,347.17438 C 369.01766,347.63684 368.9454,348.14264 368.94541,348.6918 L 368.94541,352.70934 L 367.64476,352.70934 z M 376.18565,350.41876 L 377.47184,350.21644 C 377.5441,350.73188 377.74522,351.12689 378.0752,351.40147 C 378.40517,351.67605 378.86642,351.81334 379.45894,351.81334 C 380.05627,351.81334 380.49945,351.69171 380.78848,351.44844 C 381.07751,351.20517 381.22203,350.91975 381.22203,350.59218 C 381.22203,350.29834 381.09437,350.06711 380.83906,349.89851 C 380.66082,349.7829 380.21764,349.63597 379.50952,349.45773 C 378.55571,349.21688 377.89455,349.00853 377.52604,348.8327 C 377.15752,348.65688 376.87812,348.41361 376.68785,348.1029 C 376.49757,347.79219 376.40243,347.44897 376.40243,347.07322 C 376.40243,346.7312 376.48071,346.41447 376.63726,346.12303 C 376.79382,345.83159 377.00698,345.58953 377.27675,345.39684 C 377.47907,345.24751 377.75485,345.12106 378.1041,345.01748 C 378.45335,344.91392 378.82788,344.86213 379.22771,344.86213 C 379.82986,344.86213 380.35854,344.94884 380.81377,345.12226 C 381.26899,345.29568 381.60499,345.53052 381.82177,345.82677 C 382.03854,346.12303 382.18787,346.51925 382.26977,347.01541 L 380.99803,347.18883 C 380.94022,346.79383 380.77282,346.48553 380.49584,346.26393 C 380.21885,346.04235 379.82745,345.93155 379.32165,345.93154 C 378.72431,345.93155 378.29799,346.0303 378.04268,346.2278 C 377.78737,346.42531 377.65971,346.65654 377.65971,346.92148 C 377.65971,347.09009 377.7127,347.24183 377.81868,347.3767 C 377.92466,347.51641 378.09085,347.63202 378.31726,347.72354 C 378.44732,347.77172 378.83029,347.88251 379.46616,348.05593 C 380.38624,348.30161 381.02813,348.50273 381.39184,348.65928 C 381.75553,348.81584 382.04095,349.04346 382.24809,349.34212 C 382.45523,349.64079 382.5588,350.01171 382.5588,350.45489 C 382.5588,350.88844 382.43235,351.2967 382.17945,351.67966 C 381.92654,352.06263 381.56164,352.35889 381.08474,352.56844 C 380.60783,352.77798 380.06831,352.88276 379.46616,352.88276 C 378.469,352.88276 377.70909,352.67562 377.18643,352.26134 C 376.66376,351.84706 376.33017,351.23287 376.18565,350.41876 L 376.18565,350.41876 z M 386.94486,351.54599 L 387.13273,352.69489 C 386.76662,352.77196 386.43905,352.8105 386.15002,352.8105 C 385.67793,352.8105 385.31183,352.73583 385.0517,352.5865 C 384.79157,352.43717 384.60852,352.24087 384.50254,351.9976 C 384.39656,351.75433 384.34357,351.2425 384.34357,350.46212 L 384.34357,346.04716 L 383.38977,346.04716 L 383.38977,345.03555 L 384.34357,345.03555 L 384.34357,343.13516 L 385.63699,342.35478 L 385.63699,345.03555 L 386.94486,345.03555 L 386.94486,346.04716 L 385.63699,346.04716 L 385.63699,350.53438 C 385.63699,350.9053 385.65987,351.14375 385.70564,351.24973 C 385.7514,351.35571 385.82606,351.44001 385.92963,351.50263 C 386.0332,351.56526 386.18133,351.59657 386.37402,351.59657 C 386.51853,351.59657 386.70881,351.57971 386.94486,351.54599 L 386.94486,351.54599 z M 388.19492,352.70934 L 388.19492,345.03555 L 389.3655,345.03555 L 389.3655,346.1989 C 389.66416,345.65456 389.93995,345.29568 390.19285,345.12226 C 390.44575,344.94884 390.72395,344.86213 391.02743,344.86213 C 391.46579,344.86213 391.91138,345.00183 392.36421,345.28122 L 391.91621,346.48793 C 391.59827,346.30007 391.28033,346.20613 390.9624,346.20612 C 390.67818,346.20613 390.42287,346.29164 390.19647,346.46264 C 389.97006,346.63366 389.80868,346.8709 389.71234,347.17438 C 389.56782,347.63684 389.49556,348.14264 389.49557,348.6918 L 389.49557,352.70934 L 388.19492,352.70934 z M 398.40497,350.23812 L 399.74897,350.40431 C 399.537,351.18952 399.1444,351.79889 398.57116,352.23244 C 397.99791,352.66599 397.2657,352.88276 396.37452,352.88276 C 395.25211,352.88276 394.36214,352.53713 393.70459,351.84586 C 393.04704,351.15459 392.71827,350.18513 392.71827,348.93747 C 392.71827,347.64647 393.05066,346.6445 393.71543,345.93154 C 394.3802,345.21861 395.24248,344.86213 396.30226,344.86213 C 397.32832,344.86213 398.16651,345.21138 398.81684,345.90987 C 399.46715,346.60837 399.79232,347.59107 399.79232,348.85799 C 399.79232,348.93507 399.78991,349.05068 399.7851,349.20483 L 394.06227,349.20483 C 394.11044,350.04784 394.34889,350.69335 394.77762,351.14134 C 395.20635,351.58934 395.74106,351.81334 396.38175,351.81334 C 396.85865,351.81334 397.2657,351.6881 397.60291,351.4376 C 397.94011,351.18711 398.20746,350.78728 398.40497,350.23812 L 398.40497,350.23812 z M 394.13453,348.13541 L 398.41942,348.13541 C 398.36161,347.48991 398.19782,347.00578 397.92807,346.68303 C 397.51378,346.18205 396.97667,345.93155 396.31672,345.93154 C 395.71938,345.93155 395.21719,346.13146 394.81014,346.53129 C 394.40308,346.93112 394.17788,347.46583 394.13453,348.13541 L 394.13453,348.13541 z M 400.86896,350.41876 L 402.15516,350.21644 C 402.22741,350.73188 402.42853,351.12689 402.75851,351.40147 C 403.08848,351.67605 403.54973,351.81334 404.14225,351.81334 C 404.73958,351.81334 405.18276,351.69171 405.4718,351.44844 C 405.76082,351.20517 405.90534,350.91975 405.90534,350.59218 C 405.90534,350.29834 405.77768,350.06711 405.52238,349.89851 C 405.34413,349.7829 404.90095,349.63597 404.19283,349.45773 C 403.23902,349.21688 402.57786,349.00853 402.20935,348.8327 C 401.84083,348.65688 401.56144,348.41361 401.37116,348.1029 C 401.18088,347.79219 401.08574,347.44897 401.08574,347.07322 C 401.08574,346.7312 401.16402,346.41447 401.32058,346.12303 C 401.47713,345.83159 401.69029,345.58953 401.96006,345.39684 C 402.16238,345.24751 402.43816,345.12106 402.78741,345.01748 C 403.13666,344.91392 403.51119,344.86213 403.91102,344.86213 C 404.51317,344.86213 405.04186,344.94884 405.49709,345.12226 C 405.95231,345.29568 406.2883,345.53052 406.50508,345.82677 C 406.72185,346.12303 406.87118,346.51925 406.95308,347.01541 L 405.68134,347.18883 C 405.62353,346.79383 405.45613,346.48553 405.17915,346.26393 C 404.90216,346.04235 404.51076,345.93155 404.00496,345.93154 C 403.40762,345.93155 402.9813,346.0303 402.72599,346.2278 C 402.47068,346.42531 402.34302,346.65654 402.34303,346.92148 C 402.34302,347.09009 402.39601,347.24183 402.50199,347.3767 C 402.60797,347.51641 402.77416,347.63202 403.00057,347.72354 C 403.13064,347.77172 403.5136,347.88251 404.14947,348.05593 C 405.06955,348.30161 405.71145,348.50273 406.07515,348.65928 C 406.43884,348.81584 406.72426,349.04346 406.93141,349.34212 C 407.13854,349.64079 407.24211,350.01171 407.24212,350.45489 C 407.24211,350.88844 407.11566,351.2967 406.86276,351.67966 C 406.60985,352.06263 406.24495,352.35889 405.76805,352.56844 C 405.29115,352.77798 404.75162,352.88276 404.14947,352.88276 C 403.15231,352.88276 402.3924,352.67562 401.86974,352.26134 C 401.34707,351.84706 401.01348,351.23287 400.86896,350.41876 L 400.86896,350.41876 z M 408.26818,350.41876 L 409.55437,350.21644 C 409.62663,350.73188 409.82775,351.12689 410.15773,351.40147 C 410.4877,351.67605 410.94895,351.81334 411.54146,351.81334 C 412.13879,351.81334 412.58197,351.69171 412.87101,351.44844 C 413.16004,351.20517 413.30455,350.91975 413.30456,350.59218 C 413.30455,350.29834 413.1769,350.06711 412.92159,349.89851 C 412.74335,349.7829 412.30017,349.63597 411.59205,349.45773 C 410.63824,349.21688 409.97708,349.00853 409.60856,348.8327 C 409.24005,348.65688 408.96065,348.41361 408.77037,348.1029 C 408.58009,347.79219 408.48495,347.44897 408.48495,347.07322 C 408.48495,346.7312 408.56323,346.41447 408.71979,346.12303 C 408.87635,345.83159 409.08951,345.58953 409.35927,345.39684 C 409.5616,345.24751 409.83738,345.12106 410.18663,345.01748 C 410.53587,344.91392 410.91041,344.86213 411.31024,344.86213 C 411.91238,344.86213 412.44107,344.94884 412.8963,345.12226 C 413.35152,345.29568 413.68752,345.53052 413.9043,345.82677 C 414.12107,346.12303 414.2704,346.51925 414.3523,347.01541 L 413.08056,347.18883 C 413.02275,346.79383 412.85535,346.48553 412.57837,346.26393 C 412.30137,346.04235 411.90998,345.93155 411.40417,345.93154 C 410.80684,345.93155 410.38052,346.0303 410.12521,346.2278 C 409.8699,346.42531 409.74224,346.65654 409.74224,346.92148 C 409.74224,347.09009 409.79523,347.24183 409.90121,347.3767 C 410.00719,347.51641 410.17338,347.63202 410.39979,347.72354 C 410.52985,347.77172 410.91282,347.88251 411.54869,348.05593 C 412.46877,348.30161 413.11066,348.50273 413.47436,348.65928 C 413.83806,348.81584 414.12348,349.04346 414.33062,349.34212 C 414.53775,349.64079 414.64132,350.01171 414.64133,350.45489 C 414.64132,350.88844 414.51487,351.2967 414.26198,351.67966 C 414.00907,352.06263 413.64417,352.35889 413.16727,352.56844 C 412.69036,352.77798 412.15084,352.88276 411.54869,352.88276 C 410.55153,352.88276 409.79162,352.67562 409.26895,352.26134 C 408.74629,351.84706 408.4127,351.23287 408.26818,350.41876 L 408.26818,350.41876 z M 416.52727,352.70934 L 416.52727,351.22805 L 418.00855,351.22805 L 418.00855,352.70934 C 418.00855,353.25368 417.91221,353.69325 417.71952,354.02805 C 417.52683,354.36284 417.22094,354.62176 416.80185,354.80482 L 416.44056,354.24843 C 416.71513,354.128 416.91746,353.95097 417.04752,353.71734 C 417.17758,353.4837 417.24984,353.1477 417.2643,352.70934 L 416.52727,352.70934 z M 427.63331,347.65851 L 427.53215,349.58057 C 427.5177,349.90814 427.51047,350.16345 427.51047,350.3465 C 427.51047,351.3244 427.69352,351.81334 428.05963,351.81334 C 428.42092,351.81334 428.63047,351.44964 428.68828,350.72225 L 428.95563,350.72225 C 428.94599,351.3822 428.78582,351.91209 428.47512,352.31192 C 428.1644,352.71175 427.73206,352.91166 427.17809,352.91166 C 426.2869,352.91166 425.84131,352.33601 425.84132,351.1847 C 425.84131,350.73188 425.88948,350.16827 425.98583,349.49386 L 426.24596,347.65851 L 425.26325,347.65851 C 424.82007,347.65851 424.48407,347.7103 424.25525,347.81386 C 424.02644,347.91744 423.83495,348.11374 423.6808,348.40277 L 423.43513,348.29438 C 423.63263,347.61998 423.8771,347.09852 424.16854,346.72999 C 424.45998,346.36149 424.73577,346.13989 424.9959,346.06522 C 425.25602,345.99056 425.7546,345.95323 426.49164,345.95322 L 429.91666,345.95322 L 429.91666,347.65851 L 427.63331,347.65851 z"
       id="text5103"
       style="font-size:14.79842758px;font-style:normal;font-weight:normal;text-align:start;text-anchor:start;fill:#800080;fill-opacity:1;stroke:none;stroke-width:1px;stroke-linecap:butt;stroke-linejoin:miter;stroke-opacity:1;font-family:Arial" />
    <path
       d="M 391.21152,362.46699 L 348.51034,362.46699"
       id="path5112"
       style="fill:#000080;fill-opacity:1;fill-rule:evenodd;stroke:#800080;stroke-width:2;stroke-linecap:butt;stroke-linejoin:miter;stroke-miterlimit:4;stroke-dasharray:none;stroke-dashoffset:1.56000006;stroke-opacity:1" />
    <path
       d="M 291.82098,332.16963 L 287.82098,336.16963 L 301.82098,332.16963 L 287.82098,328.16963 L 291.82098,332.16963 z"
       id="path5114"
       style="fill:#000080;fill-rule:evenodd;stroke:#000080;stroke-width:0.8pt;marker-start:none" />
    <text
       x="433.95944"
       y="399.21109"
       id="text5116"
       xml:space="preserve"
       style="font-size:12px;font-style:normal;font-weight:normal;text-align:center;text-anchor:middle;fill:#008080;fill-opacity:1;stroke:none;stroke-width:1px;stroke-linecap:butt;stroke-linejoin:miter;stroke-opacity:1;font-family:Arial"><tspan
         x="433.95944"
         y="399.21109"
         id="tspan5118"
         style="font-size:18px;fill:#008080;fill-opacity:1">gradient,</tspan></text>
    <path
       d="M 475.38751,377.88129 L 474.64978,376.96338 C 475.57373,376.62758 476.35962,376.45967 477.00745,376.45966 C 478.32763,376.45967 479.4497,377.04762 480.37366,378.22351 C 481.30968,379.42359 481.7777,380.88752 481.77771,382.6153 C 481.7777,384.69135 481.38164,386.51545 480.58954,388.08759 C 480.57745,388.11139 480.56554,388.13538 480.55383,388.15955 C 480.06164,389.13147 479.31164,389.76154 478.30383,390.04974 C 477.97973,390.14569 477.65564,390.19366 477.33154,390.19366 C 476.2395,390.19366 475.35748,389.77362 474.68549,388.93353 C 474.18158,388.28534 473.92963,387.53534 473.92963,386.68353 C 473.92963,385.53144 474.33758,384.52344 475.1535,383.65955 C 475.18939,383.61158 475.22546,383.56965 475.26172,383.53375 C 475.88574,382.90974 476.61175,382.59772 477.43976,382.59772 C 478.13555,382.59772 478.84344,382.84968 479.56342,383.35358 C 479.74359,383.4737 479.9417,383.61762 480.15778,383.78534 C 480.24163,382.98151 480.28356,382.33955 480.28357,381.85944 C 480.28356,379.89143 479.82159,378.53553 478.89764,377.79175 C 478.48968,377.46766 478.01562,377.30562 477.47546,377.3056 C 476.83972,377.30562 476.14374,377.49751 475.38751,377.88129 L 475.38751,377.88129 z M 480.04956,384.39728 C 480.00158,384.34931 479.94756,384.30134 479.88751,384.25336 C 479.34771,383.6894 478.77166,383.40742 478.15936,383.40741 C 477.34344,383.40742 476.67144,383.85145 476.14337,384.7395 C 475.71161,385.44739 475.49573,386.28144 475.49573,387.24164 C 475.49573,388.41754 475.82568,389.16754 476.4856,389.49164 C 476.67749,389.58759 476.88147,389.63556 477.09753,389.63556 C 477.72155,389.63556 478.27362,389.31751 478.75372,388.6814 C 479.22173,387.9856 479.56378,387.10962 479.77985,386.05347 C 479.8637,385.63343 479.95361,385.08136 480.04956,384.39728 L 480.04956,384.39728 z M 490.65411,387.90741 L 490.90625,388.06946 C 490.1621,389.12561 489.61004,389.76154 489.25006,389.97723 C 488.98602,390.09735 488.71008,390.16345 488.42224,390.17554 C 487.91833,390.17554 487.63635,389.94153 487.57629,389.47351 C 487.5642,389.42554 487.55816,389.37152 487.55817,389.31146 C 487.55816,388.93939 487.82824,387.75745 488.36841,385.76562 C 487.09619,387.88965 486.11218,389.21552 485.41638,389.74323 C 484.99634,390.05524 484.54626,390.21124 484.06616,390.21124 C 483.43005,390.21124 483.112,389.88129 483.112,389.22137 C 483.112,388.93353 483.26196,388.19562 483.56189,387.00763 L 484.22821,384.45166 C 484.3963,383.81556 484.48034,383.41346 484.48035,383.24536 C 484.48034,383.08936 484.41424,382.98133 484.28204,382.92126 C 484.15021,382.84949 483.85632,382.81361 483.40039,382.8136 L 483.40039,382.56146 C 484.21631,382.46552 485.11627,382.30347 486.10028,382.07532 L 486.15411,382.11157 L 484.51605,388.64569 C 484.50397,388.68158 484.49792,388.7356 484.49792,388.80774 C 484.49792,389.07141 484.62408,389.22138 484.8764,389.25763 C 485.46417,389.25763 486.31012,388.38165 487.41425,386.6297 C 487.93023,385.81342 488.34423,384.99732 488.65625,384.1814 C 488.81225,383.80933 489.05816,383.16132 489.39398,382.23737 L 490.72607,382.23737 L 489.30389,387.61957 C 489.0761,388.48346 488.96221,388.95148 488.96222,389.02362 C 488.96221,389.2276 489.02813,389.32959 489.15997,389.32959 C 489.36395,389.32959 489.66991,389.08954 490.07788,388.60944 C 490.23388,388.42963 490.42596,388.19562 490.65411,387.90741 L 490.65411,387.90741 z"
       id="text5120"
       style="font-size:12px;font-style:normal;font-variant:normal;font-weight:normal;font-stretch:normal;text-align:center;text-anchor:middle;fill:#008080;fill-opacity:1;stroke:none;stroke-width:1px;stroke-linecap:butt;stroke-linejoin:miter;stroke-opacity:1;font-family:FreeSerif;-inkscape-font-specification:FreeSerif" />
    <path
       d="M 475.89728,397.89001 L 475.15955,396.97211 C 476.08349,396.6363 476.86938,396.4684 477.51721,396.46838 C 478.8374,396.4684 479.95947,397.05635 480.88342,398.23224 C 481.81945,399.43232 482.28747,400.89625 482.28748,402.62402 C 482.28747,404.70008 481.89141,406.52417 481.0993,408.09631 C 481.08721,408.12012 481.07531,408.14411 481.0636,408.16827 C 480.5714,409.1402 479.82141,409.77026 478.8136,410.05847 C 478.4895,410.15442 478.1654,410.20239 477.84131,410.20239 C 476.74926,410.20239 475.86725,409.78235 475.19525,408.94226 C 474.69134,408.29407 474.43939,407.54407 474.43939,406.69226 C 474.43939,405.54017 474.84735,404.53217 475.66327,403.66827 C 475.69916,403.62031 475.73523,403.57838 475.77148,403.54248 C 476.39551,402.91846 477.12152,402.60645 477.94952,402.60645 C 478.64532,402.60645 479.35321,402.85841 480.07318,403.3623 C 480.25335,403.48243 480.45147,403.62635 480.66754,403.79407 C 480.7514,402.99024 480.79333,402.34827 480.79333,401.86816 C 480.79333,399.90016 480.33135,398.54426 479.40741,397.80048 C 478.99945,397.47639 478.52539,397.31434 477.98523,397.31433 C 477.34948,397.31434 476.6535,397.50624 475.89728,397.89001 L 475.89728,397.89001 z M 480.55933,404.40601 C 480.51135,404.35804 480.45733,404.31006 480.39728,404.26208 C 479.85748,403.69813 479.28143,403.41614 478.66913,403.41614 C 477.85321,403.41614 477.18121,403.86017 476.65314,404.74823 C 476.22137,405.45612 476.00549,406.29016 476.00549,407.25037 C 476.00549,408.42627 476.33545,409.17627 476.99536,409.50037 C 477.18725,409.59631 477.39123,409.64429 477.6073,409.64429 C 478.23132,409.64429 478.78338,409.32623 479.26349,408.69012 C 479.7315,407.99433 480.07354,407.11835 480.28961,406.06219 C 480.37347,405.64216 480.46337,405.09009 480.55933,404.40601 L 480.55933,404.40601 z M 483.13617,402.82233 L 483.13617,402.51636 C 483.22003,402.50428 483.41193,402.46821 483.71185,402.40814 C 484.65997,402.22834 485.24792,402.12635 485.47571,402.10217 C 485.57202,402.10218 485.62603,402.09614 485.63776,402.08405 L 485.70972,402.08405 C 485.8778,402.08405 486.2019,402.8401 486.68201,404.35217 C 486.95776,405.26404 487.14965,406.02613 487.25769,406.63843 L 487.61804,408.72638 C 489.08178,406.30243 489.81365,404.74842 489.81366,404.06433 C 489.81365,403.83619 489.65765,403.63221 489.34564,403.45239 C 489.00982,403.23633 488.84191,403.00233 488.84192,402.75037 C 488.84191,402.39039 489.01586,402.17432 489.36377,402.10217 C 489.42382,402.0901 489.48388,402.08405 489.54395,402.08405 C 489.9519,402.08405 490.24596,402.27009 490.42615,402.64215 L 490.53381,402.98438 L 490.53381,403.07446 C 490.53381,403.91419 489.95776,405.37812 488.80566,407.46625 C 487.52172,409.81805 486.24383,411.58813 484.97198,412.77649 C 484.29999,413.41223 483.76001,413.7301 483.35205,413.7301 C 482.91992,413.7301 482.6319,413.55615 482.48798,413.20825 C 482.45209,413.12439 482.43414,413.0343 482.43414,412.93799 C 482.43414,412.60217 482.59015,412.38025 482.90216,412.27222 C 482.97394,412.24804 483.05194,412.23596 483.13617,412.23596 C 483.32806,412.23596 483.54999,412.33813 483.80194,412.54248 C 483.98175,412.67431 484.12567,412.74023 484.2337,412.74023 C 484.43768,412.74023 484.7138,412.56024 485.06207,412.20026 C 485.21808,412.03216 485.58996,411.5581 486.17773,410.77808 C 486.42968,410.47815 486.55566,410.17822 486.55566,409.8783 C 486.55566,409.49414 486.34582,408.43213 485.92615,406.69226 C 485.88989,406.54834 485.85382,406.41632 485.81793,406.2962 C 485.34991,404.55634 484.97198,403.50642 484.68414,403.14642 C 484.46808,402.88239 484.13794,402.75037 483.69373,402.75037 C 483.526,402.75037 483.34015,402.77436 483.13617,402.82233 L 483.13617,402.82233 z"
       id="text5126"
       style="font-size:12px;font-style:normal;font-variant:normal;font-weight:normal;font-stretch:normal;text-align:center;text-anchor:middle;fill:#008080;fill-opacity:1;stroke:none;stroke-width:1px;stroke-linecap:butt;stroke-linejoin:miter;stroke-opacity:1;font-family:FreeSerif;-inkscape-font-specification:FreeSerif" />
    <path
       d="M 472.36147,393.452 L 492.47441,393.452"
       id="path5134"
       style="fill:none;fill-rule:evenodd;stroke:#008080;stroke-width:0.75;stroke-linecap:butt;stroke-linejoin:miter;stroke-miterlimit:4;stroke-dasharray:none;stroke-opacity:1" />
  </g>
</svg>
