<?xml version="1.0" encoding="UTF-8" standalone="no"?>
<!-- Created with Inkscape (http://www.inkscape.org/) -->

<svg
   xmlns:dc="http://purl.org/dc/elements/1.1/"
   xmlns:cc="http://creativecommons.org/ns#"
   xmlns:rdf="http://www.w3.org/1999/02/22-rdf-syntax-ns#"
   xmlns:svg="http://www.w3.org/2000/svg"
   xmlns="http://www.w3.org/2000/svg"
   xmlns:xlink="http://www.w3.org/1999/xlink"
   xmlns:sodipodi="http://sodipodi.sourceforge.net/DTD/sodipodi-0.dtd"
   xmlns:inkscape="http://www.inkscape.org/namespaces/inkscape"
   version="1.0"
   width="403.23999"
   height="580.07703"
   id="svg2"
   inkscape:version="0.48.2 r9819"
   sodipodi:docname="Stokes_sphere.svg">
  <metadata
     id="metadata95">
    <rdf:RDF>
      <cc:Work
         rdf:about="">
        <dc:format>image/svg+xml</dc:format>
        <dc:type
           rdf:resource="http://purl.org/dc/dcmitype/StillImage" />
      </cc:Work>
    </rdf:RDF>
  </metadata>
  <sodipodi:namedview
     pagecolor="#ffffff"
     bordercolor="#666666"
     borderopacity="1"
     objecttolerance="10"
     gridtolerance="10"
     guidetolerance="10"
     inkscape:pageopacity="0"
     inkscape:pageshadow="2"
     inkscape:window-width="1366"
     inkscape:window-height="712"
     id="namedview93"
     showgrid="false"
     inkscape:zoom="0.81368504"
     inkscape:cx="34.615057"
     inkscape:cy="290.03851"
     inkscape:window-x="-4"
     inkscape:window-y="-4"
     inkscape:window-maximized="1"
     inkscape:current-layer="svg2" />
  <defs
     id="defs4">
    <marker
       refX="0"
       refY="0"
       orient="auto"
       style="overflow:visible"
       id="Arrow2Mend">
      <path
         d="M 8.7185878,4.0337352 L -2.2072895,0.016013256 L 8.7185884,-4.0017078 C 6.97309,-1.6296469 6.9831476,1.6157441 8.7185878,4.0337352 z "
         transform="scale(-0.6,-0.6)"
         style="font-size:12px;fill-rule:evenodd;stroke-width:0.625;stroke-linejoin:round"
         id="path5429" />
    </marker>
    <marker
       refX="0"
       refY="0"
       orient="auto"
       style="overflow:visible"
       id="Arrow1Lend">
      <path
         d="M 0,0 L 5,-5 L -12.5,0 L 5,5 L 0,0 z "
         transform="matrix(-0.8,0,0,-0.8,-10,0)"
         style="fill-rule:evenodd;stroke:#000000;stroke-width:1pt;marker-start:none"
         id="path5405" />
    </marker>
    <marker
       refX="0"
       refY="0"
       orient="auto"
       style="overflow:visible"
       id="Arrow1Mend">
      <path
         d="M 0,0 L 5,-5 L -12.5,0 L 5,5 L 0,0 z "
         transform="matrix(-0.4,0,0,-0.4,-4,0)"
         style="fill-rule:evenodd;stroke:#000000;stroke-width:1pt;marker-start:none"
         id="path5411" />
    </marker>
    <marker
       refX="0"
       refY="0"
       orient="auto"
       style="overflow:visible"
       id="Arrow2Lend">
      <path
         d="M 8.7185878,4.0337352 L -2.2072895,0.016013256 L 8.7185884,-4.0017078 C 6.97309,-1.6296469 6.9831476,1.6157441 8.7185878,4.0337352 z "
         transform="matrix(-1.1,0,0,-1.1,-1.1,0)"
         style="font-size:12px;fill-rule:evenodd;stroke-width:0.625;stroke-linejoin:round"
         id="path5423" />
    </marker>
    <linearGradient
       id="linearGradient3440">
      <stop
         style="stop-color:#ffd9b5;stop-opacity:1;"
         offset="0"
         id="stop4424" />
      <stop
         style="stop-color:#ff3515;stop-opacity:0.96875;"
         offset="1"
         id="stop3444" />
    </linearGradient>
    <radialGradient
       cx="562.38672"
       cy="171.14503"
       r="31.847366"
       fx="562.38672"
       fy="171.14503"
       id="radialGradient3448"
       xlink:href="#linearGradient3440"
       gradientUnits="userSpaceOnUse"
       gradientTransform="matrix(-0.3977215,0.4047611,-0.2710425,-0.2663285,830.42284,-37.600873)" />
    <radialGradient
       inkscape:collect="always"
       xlink:href="#linearGradient3440"
       id="radialGradient3899"
       gradientUnits="userSpaceOnUse"
       gradientTransform="matrix(-0.53267799,0.5357286,-0.36301375,-0.35250372,552.90646,32.29479)"
       cx="562.38672"
       cy="171.14503"
       fx="562.38672"
       fy="171.14503"
       r="31.847366" />
  </defs>
  <g
     id="g2401"
     transform="matrix(0,-1,1,0,-322.99413,673.89345)"
     style="stroke:#8c83fc;stroke-opacity:1">
    <polygon
       id="polygon2187"
       style="font-style:normal;font-variant:normal;font-weight:normal;font-stretch:normal;letter-spacing:normal;word-spacing:normal;text-anchor:start;fill:#e62e17;fill-opacity:1;stroke:#8c83fc;stroke-width:0;stroke-linecap:butt;stroke-linejoin:round;stroke-miterlimit:10.43299961000000000;stroke-opacity:1;stroke-dasharray:none;stroke-dashoffset:0"
       transform="matrix(1.2921037,0,0,-1.2921037,-25.134153,1046.356)"
       points="348,405.59 348,406.59 347.84,407.59 347.75,408.59 347.5,409.59 347.34,410.5 347.09,411.5 346.84,412.5 346.51,413.42 346.26,414.33 345.84,415.33 345.51,416.25 345.1,417.16 344.6,417.99 344.18,418.91 343.68,419.74 343.1,420.65 342.6,421.48 342.02,422.23 341.44,423.07 340.77,423.82 340.11,424.57 339.45,425.32 338.78,426.07 338.03,426.73 337.28,427.39 336.53,428.06 335.78,428.72 334.95,429.3 334.12,429.89 333.29,430.39 332.45,430.89 331.54,431.39 330.71,431.89 329.79,432.3 328.88,432.71 327.96,433.05 327.05,433.46 326.05,433.71 325.14,434.04 324.14,434.29 323.14,434.54 322.22,434.71 321.22,434.87 320.22,435.04 319.22,435.12 318.22,435.2 317.22,435.2 316.22,435.2 315.22,435.2 314.22,435.12 313.22,435.04 312.22,434.95 311.22,434.79 310.22,434.62 309.31,434.38 308.31,434.12 307.39,433.88 306.39,433.54 305.48,433.21 304.57,432.88 303.65,432.46 302.74,432.05 301.82,431.64 300.91,431.14 300.08,430.64 299.25,430.14 298.41,429.55 297.58,428.97 296.83,428.39 296,427.73 295.25,427.06 294.5,426.4 293.84,425.73 293.17,424.98 292.51,424.23 291.84,423.48 291.26,422.65 290.68,421.9 290.1,421.07 289.52,420.24 289.02,419.32 288.52,418.49 288.1,417.58 287.69,416.66 287.27,415.75 286.94,414.84 286.53,413.92 286.28,412.92 285.95,412.01 285.7,411.01 285.53,410.01 285.28,409.09 285.2,408.09 285.04,407.09 284.95,406.09 284.87,405.09 284.87,404.09 284.87,403.09 284.87,402.09 284.95,401.09 285.04,400.09 285.2,399.09 285.28,398.09 285.53,397.18 285.7,396.18 285.95,395.18 286.28,394.27 286.53,393.27 286.94,392.35 287.27,391.44 287.69,390.52 288.1,389.61 288.52,388.7 289.02,387.86 289.52,386.95 290.1,386.12 290.68,385.29 291.26,384.54 291.84,383.7 292.51,382.95 293.17,382.2 293.84,381.45 294.5,380.79 295.25,380.12 296,379.46 296.83,378.8 297.58,378.21 298.41,377.63 299.25,377.05 300.08,376.55 300.91,376.05 301.82,375.55 302.74,375.14 303.65,374.72 304.57,374.31 305.48,373.98 306.39,373.64 307.39,373.31 308.31,373.06 309.31,372.81 310.22,372.56 311.22,372.4 312.22,372.23 313.22,372.15 314.22,372.07 315.22,371.99 316.22,371.99 317.22,371.99 318.22,371.99 319.22,372.07 320.22,372.15 321.22,372.32 322.22,372.48 323.14,372.64 324.14,372.89 325.14,373.14 326.05,373.48 327.05,373.73 327.96,374.14 328.88,374.47 329.79,374.89 330.71,375.3 331.54,375.8 332.45,376.3 333.29,376.8 334.12,377.3 334.95,377.88 335.78,378.46 336.53,379.13 337.28,379.79 338.03,380.46 338.78,381.12 339.45,381.87 340.11,382.62 340.77,383.37 341.44,384.12 342.02,384.95 342.6,385.7 343.1,386.54 343.68,387.45 344.18,388.28 344.6,389.2 345.1,390.03 345.51,390.94 345.84,391.86 346.26,392.86 346.51,393.77 346.84,394.68 347.09,395.68 347.34,396.68 347.5,397.6 347.75,398.6 347.84,399.6 348,400.6 348,401.6 348.08,402.6 348.08,403.6 348.08,403.59 348.08,403.59 348.08,404.59 " />
    <polyline
       id="polyline2189"
       points="284.75,402.09 284.83,401.09 284.91,400.09 285.08,399.09 285.16,398.09 285.41,397.18 285.57,396.18 285.82,395.18 286.16,394.26 286.41,393.26 286.82,392.35 287.15,391.43 287.57,390.52 287.98,389.61 288.39,388.69 288.89,387.86 289.39,386.95 289.98,386.11 290.56,385.28 291.14,384.53 291.72,383.7 292.39,382.95 293.05,382.2 293.71,381.45 294.38,380.79 295.13,380.12 295.88,379.46 296.71,378.79 297.46,378.21 298.29,377.63 299.12,377.05 299.96,376.55 300.79,376.05 301.7,375.55 302.62,375.13 303.53,374.72 304.45,374.3 305.36,373.97 306.27,373.64 307.27,373.31 308.19,373.06 309.19,372.81 310.1,372.56 311.1,372.39 312.1,372.23 313.1,372.15 314.1,372.07 315.1,371.98 316.1,371.98 317.1,371.98 318.1,371.98 319.1,372.07 320.1,372.15 321.1,372.31 322.1,372.48 323.02,372.64 324.02,372.89 325.02,373.14 325.93,373.47 326.93,373.72 327.84,374.14 328.76,374.47 329.67,374.88 330.59,375.3 331.42,375.8 332.33,376.3 333.16,376.8 334,377.3 334.83,377.88 335.66,378.46 336.41,379.12 337.16,379.79 337.91,380.45 338.66,381.12 339.32,381.87 339.99,382.62 340.65,383.37 341.32,384.12 341.9,384.95 342.48,385.7 342.98,386.53 343.56,387.45 344.06,388.28 344.48,389.19 344.98,390.02 345.39,390.94 345.72,391.85 346.14,392.85 346.39,393.77 346.72,394.68 346.97,395.68 347.22,396.68 347.38,397.59 347.63,398.59 347.71,399.59 347.88,400.59 347.88,401.59 347.96,402.59 347.96,403.59 347.96,403.59 "
       transform="matrix(1.2921037,0,0,-1.2921037,-25.134153,1046.356)"
       style="font-style:normal;font-variant:normal;font-weight:normal;font-stretch:normal;letter-spacing:normal;word-spacing:normal;text-anchor:start;fill:none;stroke:#8c83fc;stroke-width:2;stroke-linecap:butt;stroke-linejoin:round;stroke-miterlimit:10.43299961000000000;stroke-opacity:1;stroke-dasharray:none;stroke-dashoffset:0" />
    <polyline
       id="polyline2191"
       points="348,405.59 348,406.59 347.84,407.59 347.75,408.59 347.5,409.59 347.34,410.5 347.09,411.5 346.84,412.5 346.51,413.42 346.26,414.33 345.84,415.33 345.51,416.25 345.1,417.16 344.6,417.99 344.18,418.91 343.68,419.74 343.1,420.65 342.6,421.48 342.02,422.23 341.44,423.07 340.77,423.82 340.11,424.57 339.45,425.32 338.78,426.07 338.03,426.73 337.28,427.39 336.53,428.06 335.78,428.72 334.95,429.3 334.12,429.89 333.29,430.39 332.45,430.89 331.54,431.39 330.71,431.89 329.79,432.3 328.88,432.71 327.96,433.05 327.05,433.46 326.05,433.71 325.14,434.04 324.14,434.29 323.14,434.54 322.22,434.71 321.22,434.87 320.22,435.04 319.22,435.12 318.22,435.2 317.22,435.2 316.22,435.2 315.22,435.2 314.22,435.12 313.22,435.04 312.22,434.95 311.22,434.79 310.22,434.62 309.31,434.38 308.31,434.12 307.39,433.88 306.39,433.54 305.48,433.21 304.57,432.88 303.65,432.46 302.74,432.05 301.82,431.64 300.91,431.14 300.08,430.64 299.25,430.14 298.41,429.55 297.58,428.97 296.83,428.39 296,427.73 295.25,427.06 294.5,426.4 293.84,425.73 293.17,424.98 292.51,424.23 291.84,423.48 291.26,422.65 290.68,421.9 290.1,421.07 289.52,420.24 289.02,419.32 288.52,418.49 288.1,417.58 287.69,416.66 287.27,415.75 286.94,414.84 286.53,413.92 286.28,412.92 285.95,412.01 285.7,411.01 285.53,410.01 285.28,409.09 285.2,408.09 285.04,407.09 284.95,406.09 284.87,405.09 284.87,404.09 284.87,403.09 284.87,402.09 "
       transform="matrix(1.2921037,0,0,-1.2921037,-25.134153,1046.356)"
       style="font-style:normal;font-variant:normal;font-weight:normal;font-stretch:normal;letter-spacing:normal;word-spacing:normal;text-anchor:start;fill:none;stroke:#8c83fc;stroke-width:2;stroke-linecap:butt;stroke-linejoin:round;stroke-miterlimit:10.43299961000000000;stroke-opacity:1;stroke-dasharray:none;stroke-dashoffset:0" />
    <polyline
       id="polyline2193"
       points="348.08,403.59 348.08,404.59 348,405.59 "
       transform="matrix(1.2921037,0,0,-1.2921037,-25.134153,1046.356)"
       style="font-style:normal;font-variant:normal;font-weight:normal;font-stretch:normal;letter-spacing:normal;word-spacing:normal;text-anchor:start;fill:none;stroke:#8c83fc;stroke-width:2;stroke-linecap:butt;stroke-linejoin:round;stroke-miterlimit:10.43299961000000000;stroke-opacity:1;stroke-dasharray:none;stroke-dashoffset:0" />
    <polyline
       id="polyline2195"
       points="401.33,403.59 402.75,403.59 404.16,403.59 405.57,403.59 406.91,403.59 408.32,403.59 409.73,403.59 411.15,403.59 412.56,403.59 413.98,403.59 415.31,403.59 416.72,403.59 418.14,403.59 419.55,403.59 420.96,403.59 422.3,403.59 423.71,403.59 425.12,403.59 426.54,403.59 427.95,403.59 429.29,403.59 430.7,403.59 432.11,403.59 433.53,403.59 434.94,403.59 436.36,403.59 437.69,403.59 439.1,403.59 440.52,403.59 441.93,403.59 443.34,403.59 444.68,403.59 446.09,403.59 447.5,403.59 448.92,403.59 450.33,403.59 451.66,403.59 453.08,403.59 454.49,403.59 455.91,403.59 457.32,403.59 458.73,403.59 460.07,403.59 461.48,403.59 462.89,403.59 464.31,403.59 465.72,403.59 467.05,403.59 468.47,403.59 469.88,403.59 471.3,403.59 472.71,403.59 474.12,403.59 475.46,403.59 476.87,403.59 478.29,403.59 479.7,403.59 481.11,403.59 482.45,403.59 483.86,403.59 485.27,403.59 486.69,403.59 488.1,403.59 489.43,403.59 490.85,403.59 492.26,403.59 493.68,403.59 495.09,403.59 496.5,403.59 497.84,403.59 499.25,403.59 500.66,403.59 502.08,403.59 503.49,403.59 504.82,403.59 506.24,403.59 507.65,403.59 509.07,403.59 510.48,403.59 511.89,403.59 513.23,403.59 514.64,403.59 516.05,403.59 517.47,403.59 518.88,403.59 520.22,403.59 521.63,403.59 523.04,403.59 524.46,403.59 525.87,403.59 527.2,403.59 528.62,403.59 530.03,403.59 531.45,403.59 532.86,403.59 534.27,403.59 535.6,403.59 537.02,403.59 538.43,403.59 539.77,403.59 "
       transform="matrix(1.2921037,0,0,-1.2921037,-25.134153,1046.356)"
       style="font-style:normal;font-variant:normal;font-weight:normal;font-stretch:normal;letter-spacing:normal;word-spacing:normal;text-anchor:start;fill:none;stroke:#8c83fc;stroke-width:2;stroke-linecap:butt;stroke-linejoin:round;stroke-miterlimit:10.43299961000000000;stroke-opacity:1;stroke-dasharray:none;stroke-dashoffset:0" />
    <polyline
       id="polyline2197"
       points="348.08,403.59 349.5,403.59 350.91,403.59 352.32,403.59 353.66,403.59 355.07,403.59 356.48,403.59 357.9,403.59 359.31,403.59 360.73,403.59 362.06,403.59 363.47,403.59 364.89,403.59 366.3,403.59 367.71,403.59 369.05,403.59 370.46,403.59 371.88,403.59 373.29,403.59 374.7,403.59 376.12,403.59 377.45,403.59 378.86,403.59 380.28,403.59 381.69,403.59 383.11,403.59 384.44,403.59 385.85,403.59 387.27,403.59 388.68,403.59 390.09,403.59 391.43,403.59 392.84,403.59 394.25,403.59 395.67,403.59 397.08,403.59 398.5,403.59 399.83,403.59 401.24,403.59 "
       transform="matrix(1.2921037,0,0,-1.2921037,-25.134153,1046.356)"
       style="font-style:normal;font-variant:normal;font-weight:normal;font-stretch:normal;letter-spacing:normal;word-spacing:normal;text-anchor:start;fill:none;stroke:#8c83fc;stroke-width:2;stroke-linecap:butt;stroke-linejoin:round;stroke-miterlimit:10.43299961000000000;stroke-opacity:1;stroke-dasharray:none;stroke-dashoffset:0" />
    <polyline
       id="polyline2199"
       points="231.5,403.59 230.09,403.59 228.67,403.59 227.26,403.59 225.93,403.59 224.51,403.59 223.1,403.59 221.68,403.59 220.27,403.59 218.85,403.59 217.52,403.59 216.11,403.59 214.7,403.59 213.28,403.59 211.87,403.59 210.54,403.59 209.12,403.59 207.71,403.59 206.29,403.59 204.88,403.59 203.55,403.59 202.13,403.59 200.72,403.59 199.3,403.59 197.89,403.59 196.48,403.59 195.15,403.59 193.73,403.59 192.32,403.59 190.9,403.59 189.49,403.59 188.16,403.59 186.74,403.59 185.33,403.59 183.91,403.59 182.5,403.59 181.17,403.59 179.75,403.59 178.34,403.59 176.93,403.59 175.51,403.59 174.1,403.59 172.77,403.59 171.35,403.59 169.94,403.59 168.52,403.59 167.11,403.59 165.78,403.59 164.36,403.59 162.95,403.59 161.54,403.59 160.12,403.59 158.71,403.59 157.38,403.59 155.96,403.59 154.55,403.59 153.13,403.59 151.72,403.59 150.39,403.59 148.97,403.59 147.56,403.59 146.15,403.59 144.73,403.59 143.4,403.59 141.98,403.59 140.57,403.59 139.16,403.59 137.74,403.59 136.33,403.59 135,403.59 133.58,403.59 132.17,403.59 130.75,403.59 129.34,403.59 128.01,403.59 126.59,403.59 125.18,403.59 123.77,403.59 122.35,403.59 120.94,403.59 119.61,403.59 118.19,403.59 116.78,403.59 115.36,403.59 113.95,403.59 112.62,403.59 111.2,403.59 109.79,403.59 108.38,403.59 106.96,403.59 105.63,403.59 104.21,403.59 102.8,403.59 101.39,403.59 99.973,403.59 98.559,403.59 97.227,403.59 95.812,403.59 94.398,403.59 93.234,403.59 "
       transform="matrix(1.2921037,0,0,-1.2921037,-25.134153,1046.356)"
       style="font-style:normal;font-variant:normal;font-weight:normal;font-stretch:normal;letter-spacing:normal;word-spacing:normal;text-anchor:start;fill:none;stroke:#8c83fc;stroke-width:2;stroke-linecap:butt;stroke-linejoin:round;stroke-miterlimit:10.43299961000000000;stroke-opacity:1;stroke-dasharray:none;stroke-dashoffset:0" />
    <polyline
       id="polyline2201"
       points="284.75,403.59 283.34,403.59 281.92,403.59 280.51,403.59 279.18,403.59 277.76,403.59 276.35,403.59 274.93,403.59 273.52,403.59 272.11,403.59 270.77,403.59 269.36,403.59 267.95,403.59 266.53,403.59 265.12,403.59 263.79,403.59 262.37,403.59 260.96,403.59 259.54,403.59 258.13,403.59 256.71,403.59 255.38,403.59 253.97,403.59 252.55,403.59 251.14,403.59 249.73,403.59 248.4,403.59 246.98,403.59 245.57,403.59 244.15,403.59 242.74,403.59 241.41,403.59 239.99,403.59 238.58,403.59 237.16,403.59 235.75,403.59 234.34,403.59 233,403.59 231.59,403.59 "
       transform="matrix(1.2921037,0,0,-1.2921037,-25.134153,1046.356)"
       style="font-style:normal;font-variant:normal;font-weight:normal;font-stretch:normal;letter-spacing:normal;word-spacing:normal;text-anchor:start;fill:none;stroke:#8c83fc;stroke-width:2;stroke-linecap:butt;stroke-linejoin:round;stroke-miterlimit:10.43299961000000000;stroke-opacity:1;stroke-dasharray:none;stroke-dashoffset:0" />
    <polyline
       id="polyline2203"
       points="293,444.84 296.58,446 300.25,446.92 304.08,447.75 308.08,448.41 312.24,448.75 320.57,448.75 324.74,448.41 328.74,447.75 332.57,446.92 336.23,446 339.82,444.84 343.07,443.68 346.23,442.51 349.23,441.35 351.98,440.1 354.64,439.02 357.23,437.85 359.73,436.85 362.06,435.85 364.39,434.94 366.64,434.11 368.89,433.27 371.05,432.61 373.22,431.86 375.38,431.28 377.55,430.7 379.63,430.11 381.79,429.61 383.88,429.2 385.96,428.79 388.12,428.37 390.2,427.96 392.37,427.62 394.45,427.29 396.61,427.04 398.7,426.71 400.86,426.46 403.02,426.21 405.19,425.96 407.35,425.8 409.52,425.55 411.68,425.38 413.84,425.22 416.01,425.05 418.17,424.89 420.34,424.73 422.59,424.56 424.75,424.4 426.91,424.32 429.16,424.15 431.33,424.07 433.58,423.91 435.74,423.82 437.99,423.74 440.24,423.66 442.49,423.58 444.66,423.41 446.91,423.33 449.16,423.25 451.41,423.17 453.66,423.09 455.91,423.09 458.16,423 460.41,422.92 462.66,422.84 464.91,422.76 467.16,422.76 469.41,422.68 471.66,422.59 473.91,422.51 476.24,422.51 478.49,422.43 480.74,422.43 482.99,422.35 485.32,422.27 487.57,422.27 489.82,422.18 492.15,422.18 494.4,422.1 496.65,422.1 498.98,422.02 501.23,422.02 503.57,422.02 505.82,421.94 508.15,421.94 510.4,421.86 512.65,421.86 514.98,421.86 517.23,421.77 519.56,421.77 521.9,421.69 524.15,421.69 526.48,421.69 528.73,421.61 531.06,421.61 533.31,421.61 535.64,421.61 537.97,421.53 539.89,421.53 "
       transform="matrix(1.2921037,0,0,-1.2921037,-25.134153,1046.356)"
       style="font-style:normal;font-variant:normal;font-weight:normal;font-stretch:normal;letter-spacing:normal;word-spacing:normal;text-anchor:start;fill:none;stroke:#8c83fc;stroke-width:2;stroke-linecap:butt;stroke-linejoin:round;stroke-miterlimit:10.43299961000000000;stroke-opacity:1;stroke-dasharray:none;stroke-dashoffset:0" />
    <polyline
       id="polyline2205"
       points="93,421.42 94.75,421.42 97.082,421.5 99.414,421.5 101.66,421.5 104,421.5 106.25,421.59 108.58,421.59 110.83,421.59 113.16,421.67 115.49,421.67 117.74,421.75 120.07,421.75 122.32,421.75 124.57,421.83 126.91,421.83 129.16,421.91 131.49,421.91 133.74,421.91 136.07,422 138.32,422 140.57,422.08 142.9,422.08 145.15,422.16 147.4,422.16 149.73,422.24 151.98,422.32 154.23,422.32 156.48,422.41 158.82,422.41 161.07,422.49 163.32,422.57 165.57,422.65 167.82,422.65 170.07,422.73 172.32,422.82 174.57,422.9 176.82,422.98 179.07,422.98 181.32,423.06 183.57,423.14 185.82,423.23 188.07,423.31 190.23,423.47 192.48,423.55 194.73,423.64 196.98,423.72 199.15,423.8 201.4,423.96 203.56,424.05 205.81,424.21 207.97,424.29 210.14,424.46 212.39,424.62 214.55,424.79 216.71,424.95 218.88,425.11 221.04,425.28 223.21,425.44 225.37,425.69 227.54,425.86 229.7,426.11 231.86,426.36 234.03,426.61 236.11,426.94 238.27,427.19 240.35,427.52 242.52,427.85 244.6,428.27 246.77,428.68 248.85,429.09 250.93,429.51 253.09,430.01 255.18,430.59 257.34,431.17 259.5,431.75 261.67,432.5 263.83,433.17 266.08,434 268.33,434.83 270.66,435.75 273,436.75 275.5,437.75 278.08,438.91 280.74,439.99 283.49,441.24 286.49,442.41 289.66,443.57 292.91,444.73 "
       transform="matrix(1.2921037,0,0,-1.2921037,-25.134153,1046.356)"
       style="font-style:normal;font-variant:normal;font-weight:normal;font-stretch:normal;letter-spacing:normal;word-spacing:normal;text-anchor:start;fill:none;stroke:#8c83fc;stroke-width:2;stroke-linecap:butt;stroke-linejoin:round;stroke-miterlimit:10.43299961000000000;stroke-opacity:1;stroke-dasharray:none;stroke-dashoffset:0" />
    <polyline
       id="polyline2207"
       points="293,362.34 296.58,361.18 300.25,360.26 304.08,359.43 308.08,358.77 312.24,358.43 320.57,358.43 324.74,358.77 328.74,359.43 332.57,360.26 336.23,361.18 339.82,362.34 343.07,363.5 346.23,364.67 349.23,365.83 351.98,367.08 354.64,368.16 357.23,369.33 359.73,370.33 362.06,371.33 364.39,372.24 366.64,373.07 368.89,373.91 371.05,374.57 373.22,375.32 375.38,375.9 377.55,376.48 379.63,377.07 381.79,377.57 383.88,377.98 385.96,378.39 388.12,378.81 390.2,379.22 392.37,379.55 394.45,379.89 396.61,380.14 398.7,380.47 400.86,380.72 403.02,380.97 405.19,381.22 407.35,381.38 409.52,381.63 411.68,381.8 413.84,381.96 416.01,382.12 418.17,382.29 420.34,382.45 422.59,382.62 424.75,382.78 426.91,382.86 429.16,383.03 431.33,383.11 433.58,383.27 435.74,383.36 437.99,383.44 440.24,383.52 442.49,383.6 444.66,383.77 446.91,383.85 449.16,383.93 451.41,384.01 453.66,384.09 455.91,384.09 458.16,384.18 460.41,384.26 462.66,384.34 464.91,384.42 467.16,384.42 469.41,384.5 471.66,384.59 473.91,384.67 476.24,384.67 478.49,384.75 480.74,384.75 482.99,384.83 485.32,384.91 487.57,384.91 489.82,385 492.15,385 494.4,385.08 496.65,385.08 498.98,385.16 501.23,385.16 503.57,385.16 505.82,385.24 508.15,385.24 510.4,385.32 512.65,385.32 514.98,385.32 517.23,385.41 519.56,385.41 521.9,385.49 524.15,385.49 526.48,385.49 528.73,385.57 531.06,385.57 533.31,385.57 535.64,385.57 537.97,385.65 539.89,385.65 "
       transform="matrix(1.2921037,0,0,-1.2921037,-25.134153,1046.356)"
       style="font-style:normal;font-variant:normal;font-weight:normal;font-stretch:normal;letter-spacing:normal;word-spacing:normal;text-anchor:start;fill:none;stroke:#8c83fc;stroke-width:2;stroke-linecap:butt;stroke-linejoin:round;stroke-miterlimit:10.43299961000000000;stroke-opacity:1;stroke-dasharray:none;stroke-dashoffset:0" />
    <polyline
       id="polyline2209"
       points="93,385.75 94.75,385.75 97.082,385.67 99.414,385.67 101.66,385.67 104,385.67 106.25,385.59 108.58,385.59 110.83,385.59 113.16,385.51 115.49,385.51 117.74,385.43 120.07,385.43 122.32,385.43 124.57,385.34 126.91,385.34 129.16,385.26 131.49,385.26 133.74,385.26 136.07,385.18 138.32,385.18 140.57,385.1 142.9,385.1 145.15,385.02 147.4,385.02 149.73,384.93 151.98,384.85 154.23,384.85 156.48,384.77 158.82,384.77 161.07,384.69 163.32,384.61 165.57,384.52 167.82,384.52 170.07,384.44 172.32,384.36 174.57,384.28 176.82,384.2 179.07,384.2 181.32,384.11 183.57,384.03 185.82,383.95 188.07,383.87 190.23,383.7 192.48,383.62 194.73,383.54 196.98,383.46 199.15,383.38 201.4,383.21 203.56,383.13 205.81,382.96 207.97,382.88 210.14,382.72 212.39,382.55 214.55,382.39 216.71,382.23 218.88,382.06 221.04,381.9 223.21,381.73 225.37,381.48 227.54,381.32 229.7,381.07 231.86,380.82 234.03,380.57 236.11,380.24 238.27,379.99 240.35,379.66 242.52,379.32 244.6,378.91 246.77,378.5 248.85,378.08 250.93,377.67 253.09,377.17 255.18,376.59 257.34,376 259.5,375.42 261.67,374.67 263.83,374.01 266.08,373.18 268.33,372.34 270.66,371.43 273,370.43 275.5,369.43 278.08,368.27 280.74,367.18 283.49,365.93 286.49,364.77 289.66,363.61 292.91,362.44 "
       transform="matrix(1.2921037,0,0,-1.2921037,-25.134153,1046.356)"
       style="font-style:normal;font-variant:normal;font-weight:normal;font-stretch:normal;letter-spacing:normal;word-spacing:normal;text-anchor:start;fill:none;stroke:#8c83fc;stroke-width:2;stroke-linecap:butt;stroke-linejoin:round;stroke-miterlimit:10.43299961000000000;stroke-opacity:1;stroke-dasharray:none;stroke-dashoffset:0" />
    <polyline
       id="polyline2211"
       points="296.83,461.92 300,462.34 303.25,462.75 306.5,463 309.75,463.25 313.08,463.41 319.74,463.41 323.07,463.25 326.32,463 329.57,462.75 332.82,462.34 335.99,461.92 339.07,461.34 342.07,460.84 345.07,460.18 347.98,459.59 350.82,458.93 353.65,458.27 356.4,457.6 359.06,456.85 361.64,456.19 364.23,455.52 366.73,454.94 369.23,454.28 371.73,453.61 374.14,453.03 376.47,452.45 378.89,451.95 381.22,451.37 383.55,450.87 385.8,450.37 388.13,449.87 390.38,449.45 392.63,449.04 394.88,448.62 397.13,448.21 399.38,447.8 401.63,447.46 403.88,447.13 406.13,446.8 408.38,446.47 410.55,446.22 412.8,445.89 415.05,445.64 417.3,445.39 419.46,445.14 421.71,444.89 423.96,444.64 426.12,444.39 428.38,444.22 430.62,443.97 432.88,443.81 435.04,443.64 437.29,443.39 439.54,443.23 441.79,443.07 444.04,442.9 446.2,442.74 448.45,442.66 450.7,442.49 452.95,442.33 455.2,442.25 457.45,442.08 459.7,442 461.95,441.84 464.2,441.75 466.45,441.59 468.7,441.51 470.95,441.43 473.2,441.34 475.54,441.18 477.79,441.1 480.04,441.02 482.29,440.93 484.54,440.85 486.79,440.77 489.12,440.69 491.37,440.61 493.62,440.52 495.87,440.44 498.2,440.36 500.45,440.28 502.7,440.2 505.03,440.2 507.28,440.11 509.53,440.03 511.86,439.95 514.11,439.95 516.45,439.87 518.7,439.79 520.95,439.7 523.28,439.7 525.53,439.62 527.86,439.62 530.11,439.54 532.44,439.46 534.69,439.46 537.02,439.38 539.27,439.38 539.94,439.29 "
       transform="matrix(1.2921037,0,0,-1.2921037,-25.134153,1046.356)"
       style="font-style:normal;font-variant:normal;font-weight:normal;font-stretch:normal;letter-spacing:normal;word-spacing:normal;text-anchor:start;fill:none;stroke:#8c83fc;stroke-width:2;stroke-linecap:butt;stroke-linejoin:round;stroke-miterlimit:10.43299961000000000;stroke-opacity:1;stroke-dasharray:none;stroke-dashoffset:0" />
    <polyline
       id="polyline2213"
       points="93,439.17 93.5,439.25 95.75,439.25 98.082,439.34 100.33,439.34 102.66,439.42 104.91,439.5 107.25,439.5 109.5,439.58 111.83,439.58 114.08,439.66 116.33,439.75 118.66,439.83 120.91,439.83 123.24,439.91 125.49,439.99 127.74,440.07 130.07,440.07 132.32,440.16 134.57,440.24 136.91,440.32 139.16,440.4 141.41,440.48 143.66,440.57 145.99,440.65 148.24,440.73 150.49,440.81 152.74,440.89 154.99,440.98 157.24,441.06 159.57,441.22 161.82,441.3 164.07,441.39 166.32,441.47 168.57,441.63 170.82,441.71 173.07,441.88 175.32,441.96 177.57,442.12 179.82,442.21 182.07,442.37 184.32,442.54 186.57,442.62 188.73,442.78 190.98,442.95 193.23,443.11 195.48,443.27 197.73,443.52 199.9,443.69 202.15,443.85 204.4,444.1 206.65,444.27 208.81,444.52 211.06,444.77 213.31,445.02 215.48,445.27 217.73,445.52 219.98,445.77 222.23,446.1 224.39,446.35 226.64,446.68 228.89,447.01 231.14,447.34 233.39,447.68 235.64,448.09 237.89,448.5 240.14,448.92 242.39,449.33 244.64,449.75 246.97,450.25 249.22,450.75 251.55,451.25 253.89,451.83 256.3,452.33 258.63,452.91 261.05,453.49 263.55,454.16 266.05,454.82 268.55,455.4 271.13,456.07 273.71,456.73 276.38,457.48 279.12,458.14 281.96,458.81 284.79,459.47 287.7,460.05 290.7,460.72 293.7,461.22 296.79,461.8 "
       transform="matrix(1.2921037,0,0,-1.2921037,-25.134153,1046.356)"
       style="font-style:normal;font-variant:normal;font-weight:normal;font-stretch:normal;letter-spacing:normal;word-spacing:normal;text-anchor:start;fill:none;stroke:#8c83fc;stroke-width:2;stroke-linecap:butt;stroke-linejoin:round;stroke-miterlimit:10.43299961000000000;stroke-opacity:1;stroke-dasharray:none;stroke-dashoffset:0" />
    <polyline
       id="polyline2215"
       points="296.83,345.25 300,344.84 303.25,344.43 306.5,344.18 309.75,343.93 313.08,343.76 319.74,343.76 323.07,343.93 326.32,344.18 329.57,344.43 332.82,344.84 335.99,345.25 339.07,345.84 342.07,346.34 345.07,347 347.98,347.58 350.82,348.25 353.65,348.91 356.4,349.57 359.06,350.32 361.64,350.99 364.23,351.65 366.73,352.23 369.23,352.9 371.73,353.56 374.14,354.14 376.47,354.73 378.89,355.23 381.22,355.81 383.55,356.31 385.8,356.81 388.13,357.31 390.38,357.72 392.63,358.14 394.88,358.55 397.13,358.96 399.38,359.38 401.63,359.71 403.88,360.04 406.13,360.38 408.38,360.71 410.55,360.96 412.8,361.29 415.05,361.54 417.3,361.79 419.46,362.04 421.71,362.29 423.96,362.54 426.12,362.79 428.38,362.95 430.62,363.2 432.88,363.37 435.04,363.53 437.29,363.78 439.54,363.95 441.79,364.11 444.04,364.27 446.2,364.44 448.45,364.52 450.7,364.68 452.95,364.85 455.2,364.93 457.45,365.09 459.7,365.18 461.95,365.34 464.2,365.42 466.45,365.59 468.7,365.67 470.95,365.75 473.2,365.83 475.54,366 477.79,366.08 480.04,366.16 482.29,366.24 484.54,366.32 486.79,366.41 489.12,366.49 491.37,366.57 493.62,366.65 495.87,366.73 498.2,366.82 500.45,366.9 502.7,366.98 505.03,366.98 507.28,367.06 509.53,367.14 511.86,367.23 514.11,367.23 516.45,367.31 518.7,367.39 520.95,367.47 523.28,367.47 525.53,367.55 527.86,367.55 530.11,367.64 532.44,367.72 534.69,367.72 537.02,367.8 539.27,367.8 539.94,367.88 "
       transform="matrix(1.2921037,0,0,-1.2921037,-25.134153,1046.356)"
       style="font-style:normal;font-variant:normal;font-weight:normal;font-stretch:normal;letter-spacing:normal;word-spacing:normal;text-anchor:start;fill:none;stroke:#8c83fc;stroke-width:2;stroke-linecap:butt;stroke-linejoin:round;stroke-miterlimit:10.43299961000000000;stroke-opacity:1;stroke-dasharray:none;stroke-dashoffset:0" />
    <polyline
       id="polyline2217"
       points="93,368 93.5,367.92 95.75,367.92 98.082,367.84 100.33,367.84 102.66,367.76 104.91,367.68 107.25,367.68 109.5,367.59 111.83,367.59 114.08,367.51 116.33,367.43 118.66,367.35 120.91,367.35 123.24,367.27 125.49,367.18 127.74,367.1 130.07,367.1 132.32,367.02 134.57,366.94 136.91,366.86 139.16,366.77 141.41,366.69 143.66,366.61 145.99,366.53 148.24,366.45 150.49,366.36 152.74,366.28 154.99,366.2 157.24,366.12 159.57,365.95 161.82,365.87 164.07,365.79 166.32,365.71 168.57,365.54 170.82,365.46 173.07,365.3 175.32,365.21 177.57,365.05 179.82,364.97 182.07,364.8 184.32,364.64 186.57,364.56 188.73,364.39 190.98,364.23 193.23,364.07 195.48,363.9 197.73,363.65 199.9,363.49 202.15,363.32 204.4,363.07 206.65,362.91 208.81,362.66 211.06,362.41 213.31,362.16 215.48,361.91 217.73,361.66 219.98,361.41 222.23,361.08 224.39,360.83 226.64,360.5 228.89,360.16 231.14,359.83 233.39,359.5 235.64,359.09 237.89,358.67 240.14,358.26 242.39,357.84 244.64,357.43 246.97,356.93 249.22,356.43 251.55,355.93 253.89,355.35 256.3,354.85 258.63,354.27 261.05,353.68 263.55,353.02 266.05,352.36 268.55,351.77 271.13,351.11 273.71,350.45 276.38,349.7 279.12,349.03 281.96,348.37 284.79,347.7 287.7,347.12 290.7,346.46 293.7,345.96 296.79,345.38 "
       transform="matrix(1.2921037,0,0,-1.2921037,-25.134153,1046.356)"
       style="font-style:normal;font-variant:normal;font-weight:normal;font-stretch:normal;letter-spacing:normal;word-spacing:normal;text-anchor:start;fill:none;stroke:#8c83fc;stroke-width:2;stroke-linecap:butt;stroke-linejoin:round;stroke-miterlimit:10.43299961000000000;stroke-opacity:1;stroke-dasharray:none;stroke-dashoffset:0" />
    <polyline
       id="polyline2219"
       points="298.58,477.67 301.5,477.84 304.41,478.09 307.41,478.25 310.41,478.33 313.41,478.41 316.41,478.41 319.41,478.41 322.41,478.33 325.41,478.25 328.41,478.09 331.32,477.84 334.24,477.67 337.15,477.34 340.07,477.01 342.9,476.68 345.73,476.34 348.56,475.93 351.31,475.52 354.06,475.1 356.81,474.69 359.48,474.19 362.14,473.77 364.72,473.27 367.3,472.77 369.89,472.36 372.39,471.86 374.89,471.45 377.39,470.95 379.89,470.53 382.3,470.03 384.71,469.62 387.13,469.2 389.54,468.79 391.88,468.38 394.29,468.04 396.62,467.63 398.95,467.21 401.29,466.88 403.62,466.55 405.95,466.22 408.28,465.89 410.53,465.55 412.86,465.22 415.11,464.97 417.45,464.64 419.7,464.39 422.03,464.06 424.28,463.81 426.53,463.56 428.86,463.31 431.11,463.06 433.36,462.81 435.61,462.64 437.94,462.39 440.19,462.14 442.44,461.98 444.69,461.82 446.94,461.57 449.27,461.4 451.52,461.24 453.77,461.07 456.02,460.91 458.27,460.75 460.61,460.58 462.86,460.42 465.11,460.25 467.36,460.09 469.61,460.01 471.94,459.84 474.19,459.68 476.44,459.6 478.69,459.43 481.02,459.35 483.27,459.19 485.52,459.11 487.77,459.02 490.1,458.86 492.35,458.78 494.6,458.7 496.93,458.53 499.18,458.45 501.43,458.37 503.77,458.29 506.02,458.2 508.27,458.12 510.6,458.04 512.85,457.96 515.1,457.88 517.43,457.79 519.68,457.71 522.01,457.63 524.26,457.55 526.51,457.46 528.84,457.38 531.09,457.3 533.43,457.22 535.68,457.14 538.01,457.14 539.92,457.05 "
       transform="matrix(1.2921037,0,0,-1.2921037,-25.134153,1046.356)"
       style="font-style:normal;font-variant:normal;font-weight:normal;font-stretch:normal;letter-spacing:normal;word-spacing:normal;text-anchor:start;fill:none;stroke:#8c83fc;stroke-width:2;stroke-linecap:butt;stroke-linejoin:round;stroke-miterlimit:10.43299961000000000;stroke-opacity:1;stroke-dasharray:none;stroke-dashoffset:0" />
    <polyline
       id="polyline2221"
       points="93,456.92 94.75,457 97.082,457 99.332,457.09 101.66,457.17 103.91,457.25 106.25,457.33 108.5,457.41 110.75,457.5 113.08,457.58 115.33,457.66 117.66,457.74 119.91,457.82 122.16,457.91 124.49,457.99 126.74,458.07 128.99,458.15 131.32,458.23 133.57,458.32 135.82,458.4 138.16,458.56 140.41,458.64 142.66,458.73 144.99,458.89 147.24,458.97 149.49,459.05 151.74,459.22 154.07,459.3 156.32,459.46 158.57,459.55 160.82,459.71 163.15,459.88 165.4,459.96 167.65,460.12 169.9,460.29 172.15,460.45 174.48,460.61 176.73,460.78 178.98,460.94 181.23,461.11 183.48,461.27 185.82,461.43 188.07,461.68 190.32,461.85 192.57,462.01 194.82,462.26 197.15,462.51 199.4,462.68 201.65,462.93 203.9,463.18 206.23,463.43 208.48,463.68 210.73,463.93 213.06,464.26 215.31,464.51 217.65,464.84 219.9,465.09 222.23,465.42 224.48,465.75 226.81,466.09 229.14,466.42 231.47,466.75 233.8,467.08 236.14,467.5 238.47,467.91 240.88,468.24 243.21,468.66 245.63,469.07 248.04,469.48 250.46,469.9 252.87,470.4 255.37,470.81 257.87,471.31 260.37,471.73 262.87,472.23 265.45,472.64 268.04,473.14 270.62,473.64 273.28,474.05 275.95,474.55 278.7,474.97 281.45,475.38 284.2,475.8 287.03,476.21 289.86,476.54 292.69,476.88 295.61,477.21 298.52,477.54 "
       transform="matrix(1.2921037,0,0,-1.2921037,-25.134153,1046.356)"
       style="font-style:normal;font-variant:normal;font-weight:normal;font-stretch:normal;letter-spacing:normal;word-spacing:normal;text-anchor:start;fill:none;stroke:#8c83fc;stroke-width:2;stroke-linecap:butt;stroke-linejoin:round;stroke-miterlimit:10.43299961000000000;stroke-opacity:1;stroke-dasharray:none;stroke-dashoffset:0" />
    <polyline
       id="polyline2223"
       points="298.58,329.5 301.5,329.34 304.41,329.09 307.41,328.93 310.41,328.84 313.41,328.76 316.41,328.76 319.41,328.76 322.41,328.84 325.41,328.93 328.41,329.09 331.32,329.34 334.24,329.5 337.15,329.84 340.07,330.17 342.9,330.5 345.73,330.83 348.56,331.25 351.31,331.66 354.06,332.07 356.81,332.49 359.48,332.99 362.14,333.4 364.72,333.9 367.3,334.4 369.89,334.82 372.39,335.32 374.89,335.73 377.39,336.23 379.89,336.64 382.3,337.14 384.71,337.56 387.13,337.97 389.54,338.39 391.88,338.8 394.29,339.13 396.62,339.55 398.95,339.96 401.29,340.29 403.62,340.62 405.95,340.96 408.28,341.29 410.53,341.62 412.86,341.95 415.11,342.2 417.45,342.54 419.7,342.79 422.03,343.12 424.28,343.37 426.53,343.62 428.86,343.87 431.11,344.12 433.36,344.37 435.61,344.53 437.94,344.78 440.19,345.03 442.44,345.2 444.69,345.36 446.94,345.61 449.27,345.77 451.52,345.94 453.77,346.1 456.02,346.27 458.27,346.43 460.61,346.59 462.86,346.76 465.11,346.92 467.36,347.09 469.61,347.17 471.94,347.33 474.19,347.5 476.44,347.58 478.69,347.74 481.02,347.82 483.27,347.99 485.52,348.07 487.77,348.15 490.1,348.32 492.35,348.4 494.6,348.48 496.93,348.64 499.18,348.73 501.43,348.81 503.77,348.89 506.02,348.97 508.27,349.05 510.6,349.14 512.85,349.22 515.1,349.3 517.43,349.38 519.68,349.46 522.01,349.55 524.26,349.63 526.51,349.71 528.84,349.79 531.09,349.88 533.43,349.96 535.68,350.04 538.01,350.04 539.92,350.12 "
       transform="matrix(1.2921037,0,0,-1.2921037,-25.134153,1046.356)"
       style="font-style:normal;font-variant:normal;font-weight:normal;font-stretch:normal;letter-spacing:normal;word-spacing:normal;text-anchor:start;fill:none;stroke:#8c83fc;stroke-width:2;stroke-linecap:butt;stroke-linejoin:round;stroke-miterlimit:10.43299961000000000;stroke-opacity:1;stroke-dasharray:none;stroke-dashoffset:0" />
    <polyline
       id="polyline2225"
       points="93,350.25 94.75,350.17 97.082,350.17 99.332,350.09 101.66,350.01 103.91,349.93 106.25,349.84 108.5,349.76 110.75,349.68 113.08,349.6 115.33,349.52 117.66,349.43 119.91,349.35 122.16,349.27 124.49,349.19 126.74,349.11 128.99,349.02 131.32,348.94 133.57,348.86 135.82,348.78 138.16,348.61 140.41,348.53 142.66,348.45 144.99,348.29 147.24,348.2 149.49,348.12 151.74,347.96 154.07,347.88 156.32,347.71 158.57,347.63 160.82,347.46 163.15,347.3 165.4,347.22 167.65,347.05 169.9,346.89 172.15,346.73 174.48,346.56 176.73,346.4 178.98,346.23 181.23,346.07 183.48,345.91 185.82,345.74 188.07,345.49 190.32,345.33 192.57,345.16 194.82,344.91 197.15,344.66 199.4,344.5 201.65,344.25 203.9,344 206.23,343.75 208.48,343.5 210.73,343.25 213.06,342.92 215.31,342.67 217.65,342.34 219.9,342.09 222.23,341.75 224.48,341.42 226.81,341.09 229.14,340.76 231.47,340.43 233.8,340.09 236.14,339.68 238.47,339.27 240.88,338.93 243.21,338.52 245.63,338.11 248.04,337.69 250.46,337.28 252.87,336.78 255.37,336.36 257.87,335.86 260.37,335.45 262.87,334.95 265.45,334.54 268.04,334.04 270.62,333.54 273.28,333.12 275.95,332.62 278.7,332.21 281.45,331.79 284.2,331.38 287.03,330.96 289.86,330.63 292.69,330.3 295.61,329.97 298.52,329.64 "
       transform="matrix(1.2921037,0,0,-1.2921037,-25.134153,1046.356)"
       style="font-style:normal;font-variant:normal;font-weight:normal;font-stretch:normal;letter-spacing:normal;word-spacing:normal;text-anchor:start;fill:none;stroke:#8c83fc;stroke-width:2;stroke-linecap:butt;stroke-linejoin:round;stroke-miterlimit:10.43299961000000000;stroke-opacity:1;stroke-dasharray:none;stroke-dashoffset:0" />
    <polyline
       id="polyline2227"
       points="299.5,493.25 302.25,493.34 305.08,493.5 307.91,493.58 310.75,493.66 313.58,493.66 316.41,493.75 319.24,493.66 322.07,493.66 324.91,493.58 327.74,493.5 330.57,493.34 333.32,493.25 336.15,493 338.9,492.84 341.65,492.59 344.4,492.43 347.15,492.18 349.9,491.84 352.57,491.59 355.23,491.26 357.89,490.93 360.56,490.6 363.14,490.27 365.8,489.93 368.39,489.6 370.97,489.27 373.47,488.94 376.05,488.61 378.55,488.19 381.05,487.86 383.55,487.53 385.96,487.2 388.46,486.78 390.88,486.45 393.29,486.12 395.79,485.79 398.12,485.45 400.54,485.12 402.95,484.79 405.37,484.54 407.7,484.21 410.03,483.88 412.45,483.62 414.78,483.29 417.11,483.04 419.44,482.71 421.77,482.46 424.11,482.21 426.44,481.96 428.77,481.71 431.1,481.46 433.35,481.21 435.68,480.96 438.02,480.71 440.27,480.55 442.6,480.3 444.93,480.05 447.18,479.88 449.51,479.72 451.76,479.47 454.09,479.3 456.34,479.14 458.68,478.89 460.93,478.73 463.26,478.56 465.51,478.4 467.84,478.23 470.09,478.07 472.42,477.91 474.67,477.74 476.92,477.66 479.25,477.5 481.5,477.33 483.84,477.17 486.09,477.09 488.42,476.92 490.67,476.84 492.92,476.68 495.25,476.59 497.5,476.43 499.83,476.35 502.08,476.18 504.41,476.1 506.66,476.02 509,475.86 511.25,475.77 513.5,475.69 515.83,475.53 518.08,475.45 520.41,475.36 522.66,475.28 524.99,475.2 527.24,475.12 529.57,475.04 531.82,474.95 534.16,474.79 536.41,474.71 538.74,474.62 539.9,474.62 "
       transform="matrix(1.2921037,0,0,-1.2921037,-25.134153,1046.356)"
       style="font-style:normal;font-variant:normal;font-weight:normal;font-stretch:normal;letter-spacing:normal;word-spacing:normal;text-anchor:start;fill:none;stroke:#8c83fc;stroke-width:2;stroke-linecap:butt;stroke-linejoin:round;stroke-miterlimit:10.43299961000000000;stroke-opacity:1;stroke-dasharray:none;stroke-dashoffset:0" />
    <polyline
       id="polyline2229"
       points="93,474.5 94,474.5 96.332,474.59 98.582,474.67 100.91,474.83 103.16,474.91 105.5,475 107.75,475.08 110.08,475.16 112.33,475.24 114.66,475.32 116.91,475.41 119.24,475.57 121.49,475.65 123.74,475.73 126.07,475.9 128.32,475.98 130.66,476.06 132.91,476.23 135.24,476.31 137.49,476.47 139.82,476.55 142.07,476.72 144.32,476.8 146.65,476.96 148.9,477.05 151.23,477.21 153.48,477.38 155.82,477.54 158.07,477.62 160.32,477.79 162.65,477.95 164.9,478.11 167.23,478.28 169.48,478.44 171.81,478.61 174.06,478.77 176.4,479.02 178.65,479.18 180.98,479.35 183.23,479.6 185.56,479.76 187.81,479.93 190.14,480.18 192.47,480.43 194.72,480.59 197.05,480.84 199.39,481.09 201.64,481.34 203.97,481.59 206.3,481.84 208.63,482.09 210.96,482.34 213.3,482.59 215.63,482.92 217.96,483.17 220.29,483.5 222.71,483.75 225.04,484.09 227.37,484.42 229.79,484.67 232.2,485 234.61,485.33 236.95,485.66 239.45,486 241.86,486.33 244.27,486.66 246.77,487.07 249.19,487.41 251.69,487.74 254.19,488.07 256.69,488.48 259.27,488.82 261.77,489.15 264.35,489.48 266.93,489.81 269.6,490.14 272.18,490.48 274.84,490.81 277.51,491.14 280.17,491.47 282.84,491.72 285.59,492.05 288.34,492.3 291.09,492.47 293.84,492.72 296.59,492.88 299.42,493.13 "
       transform="matrix(1.2921037,0,0,-1.2921037,-25.134153,1046.356)"
       style="font-style:normal;font-variant:normal;font-weight:normal;font-stretch:normal;letter-spacing:normal;word-spacing:normal;text-anchor:start;fill:none;stroke:#8c83fc;stroke-width:2;stroke-linecap:butt;stroke-linejoin:round;stroke-miterlimit:10.43299961000000000;stroke-opacity:1;stroke-dasharray:none;stroke-dashoffset:0" />
    <polyline
       id="polyline2231"
       points="299.5,313.92 302.25,313.84 305.08,313.68 307.91,313.59 310.75,313.51 313.58,313.51 316.41,313.43 319.24,313.51 322.07,313.51 324.91,313.59 327.74,313.68 330.57,313.84 333.32,313.92 336.15,314.17 338.9,314.34 341.65,314.59 344.4,314.75 347.15,315 349.9,315.33 352.57,315.58 355.23,315.91 357.89,316.25 360.56,316.58 363.14,316.91 365.8,317.24 368.39,317.57 370.97,317.91 373.47,318.24 376.05,318.57 378.55,318.98 381.05,319.32 383.55,319.65 385.96,319.98 388.46,320.39 390.88,320.73 393.29,321.06 395.79,321.39 398.12,321.72 400.54,322.05 402.95,322.39 405.37,322.64 407.7,322.97 410.03,323.3 412.45,323.55 414.78,323.88 417.11,324.13 419.44,324.46 421.77,324.71 424.11,324.96 426.44,325.21 428.77,325.46 431.1,325.71 433.35,325.96 435.68,326.21 438.02,326.46 440.27,326.63 442.6,326.88 444.93,327.13 447.18,327.29 449.51,327.46 451.76,327.71 454.09,327.87 456.34,328.04 458.68,328.29 460.93,328.45 463.26,328.61 465.51,328.78 467.84,328.94 470.09,329.11 472.42,329.27 474.67,329.43 476.92,329.52 479.25,329.68 481.5,329.84 483.84,330.01 486.09,330.09 488.42,330.25 490.67,330.34 492.92,330.5 495.25,330.58 497.5,330.75 499.83,330.83 502.08,330.99 504.41,331.07 506.66,331.16 509,331.32 511.25,331.4 513.5,331.48 515.83,331.65 518.08,331.73 520.41,331.81 522.66,331.89 524.99,331.98 527.24,332.06 529.57,332.14 531.82,332.22 534.16,332.39 536.41,332.47 538.74,332.55 539.9,332.55 "
       transform="matrix(1.2921037,0,0,-1.2921037,-25.134153,1046.356)"
       style="font-style:normal;font-variant:normal;font-weight:normal;font-stretch:normal;letter-spacing:normal;word-spacing:normal;text-anchor:start;fill:none;stroke:#8c83fc;stroke-width:2;stroke-linecap:butt;stroke-linejoin:round;stroke-miterlimit:10.43299961000000000;stroke-opacity:1;stroke-dasharray:none;stroke-dashoffset:0" />
    <polyline
       id="polyline2233"
       points="93,332.67 94,332.67 96.332,332.59 98.582,332.51 100.91,332.34 103.16,332.26 105.5,332.18 107.75,332.1 110.08,332.02 112.33,331.93 114.66,331.85 116.91,331.77 119.24,331.61 121.49,331.52 123.74,331.44 126.07,331.28 128.32,331.2 130.66,331.11 132.91,330.95 135.24,330.87 137.49,330.7 139.82,330.62 142.07,330.46 144.32,330.38 146.65,330.21 148.9,330.13 151.23,329.96 153.48,329.8 155.82,329.64 158.07,329.55 160.32,329.39 162.65,329.23 164.9,329.06 167.23,328.9 169.48,328.73 171.81,328.57 174.06,328.41 176.4,328.16 178.65,327.99 180.98,327.83 183.23,327.58 185.56,327.41 187.81,327.25 190.14,327 192.47,326.75 194.72,326.59 197.05,326.34 199.39,326.09 201.64,325.84 203.97,325.59 206.3,325.34 208.63,325.09 210.96,324.84 213.3,324.59 215.63,324.25 217.96,324 220.29,323.67 222.71,323.42 225.04,323.09 227.37,322.76 229.79,322.51 232.2,322.18 234.61,321.84 236.95,321.51 239.45,321.18 241.86,320.85 244.27,320.52 246.77,320.1 249.19,319.77 251.69,319.44 254.19,319.11 256.69,318.69 259.27,318.36 261.77,318.03 264.35,317.7 266.93,317.36 269.6,317.03 272.18,316.7 274.84,316.37 277.51,316.04 280.17,315.7 282.84,315.45 285.59,315.12 288.34,314.87 291.09,314.71 293.84,314.46 296.59,314.29 299.42,314.04 "
       transform="matrix(1.2921037,0,0,-1.2921037,-25.134153,1046.356)"
       style="font-style:normal;font-variant:normal;font-weight:normal;font-stretch:normal;letter-spacing:normal;word-spacing:normal;text-anchor:start;fill:none;stroke:#8c83fc;stroke-width:2;stroke-linecap:butt;stroke-linejoin:round;stroke-miterlimit:10.43299961000000000;stroke-opacity:1;stroke-dasharray:none;stroke-dashoffset:0" />
    <polyline
       id="polyline2235"
       points="300.08,508.84 302.75,508.92 305.5,509 308.25,509.09 310.91,509.09 313.66,509.17 316.41,509.17 319.16,509.17 321.91,509.09 324.57,509.09 327.32,509 330.07,508.92 332.74,508.84 335.49,508.68 338.15,508.59 340.9,508.43 343.57,508.27 346.23,508.1 348.89,507.85 351.56,507.69 354.14,507.44 356.8,507.27 359.47,507.02 362.05,506.77 364.63,506.52 367.21,506.27 369.8,506.02 372.38,505.69 374.88,505.44 377.38,505.19 379.96,504.86 382.46,504.61 384.96,504.36 387.46,504.03 389.88,503.78 392.38,503.45 394.88,503.2 397.29,502.86 399.7,502.61 402.12,502.36 404.62,502.03 406.95,501.78 409.36,501.53 411.78,501.28 414.19,501.03 416.52,500.7 418.94,500.45 421.35,500.2 423.68,499.95 426.02,499.7 428.43,499.54 430.76,499.29 433.09,499.04 435.43,498.79 437.76,498.54 440.09,498.37 442.42,498.12 444.75,497.96 447.09,497.71 449.42,497.54 451.75,497.29 454.08,497.13 456.41,496.96 458.75,496.71 461,496.55 463.33,496.39 465.66,496.22 467.99,496.06 470.24,495.89 472.57,495.73 474.91,495.57 477.16,495.4 479.49,495.24 481.82,495.07 484.07,494.91 486.4,494.75 488.65,494.66 490.98,494.5 493.32,494.34 495.57,494.25 497.9,494.09 500.15,493.93 502.48,493.84 504.81,493.68 507.06,493.6 509.39,493.43 511.64,493.35 513.98,493.27 516.23,493.11 518.56,493.02 520.89,492.94 523.14,492.78 525.47,492.7 527.72,492.61 530.05,492.53 532.3,492.37 534.64,492.29 536.97,492.2 539.22,492.12 539.88,492.12 "
       transform="matrix(1.2921037,0,0,-1.2921037,-25.134153,1046.356)"
       style="font-style:normal;font-variant:normal;font-weight:normal;font-stretch:normal;letter-spacing:normal;word-spacing:normal;text-anchor:start;fill:none;stroke:#8c83fc;stroke-width:2;stroke-linecap:butt;stroke-linejoin:round;stroke-miterlimit:10.43299961000000000;stroke-opacity:1;stroke-dasharray:none;stroke-dashoffset:0" />
    <polyline
       id="polyline2237"
       points="93,492 93.5,492 95.75,492.09 98.082,492.17 100.41,492.25 102.66,492.41 105,492.5 107.25,492.58 109.58,492.66 111.83,492.82 114.16,492.91 116.49,492.99 118.74,493.15 121.07,493.23 123.32,493.32 125.66,493.48 127.91,493.56 130.24,493.73 132.57,493.81 134.82,493.97 137.15,494.14 139.4,494.22 141.73,494.38 144.07,494.55 146.32,494.63 148.65,494.79 150.9,494.96 153.23,495.12 155.56,495.29 157.81,495.45 160.15,495.61 162.48,495.78 164.73,495.94 167.06,496.11 169.39,496.27 171.72,496.43 173.97,496.6 176.3,496.85 178.64,497.01 180.97,497.18 183.3,497.43 185.63,497.59 187.96,497.84 190.3,498 192.63,498.25 194.96,498.42 197.29,498.67 199.62,498.92 201.96,499.17 204.29,499.42 206.7,499.58 209.04,499.83 211.37,500.08 213.78,500.33 216.2,500.58 218.53,500.91 220.94,501.16 223.35,501.41 225.77,501.66 228.1,501.91 230.6,502.25 233.02,502.5 235.43,502.75 237.84,503.08 240.34,503.33 242.84,503.66 245.26,503.91 247.76,504.24 250.26,504.49 252.76,504.74 255.34,505.07 257.84,505.32 260.34,505.57 262.92,505.91 265.5,506.16 268.09,506.41 270.67,506.66 273.25,506.91 275.91,507.16 278.58,507.32 281.16,507.57 283.82,507.73 286.49,507.98 289.15,508.15 291.82,508.31 294.57,508.48 297.23,508.56 299.98,508.72 "
       transform="matrix(1.2921037,0,0,-1.2921037,-25.134153,1046.356)"
       style="font-style:normal;font-variant:normal;font-weight:normal;font-stretch:normal;letter-spacing:normal;word-spacing:normal;text-anchor:start;fill:none;stroke:#8c83fc;stroke-width:2;stroke-linecap:butt;stroke-linejoin:round;stroke-miterlimit:10.43299961000000000;stroke-opacity:1;stroke-dasharray:none;stroke-dashoffset:0" />
    <polyline
       id="polyline2239"
       points="300.08,298.34 302.75,298.26 305.5,298.18 308.25,298.09 310.91,298.09 313.66,298.01 316.41,298.01 319.16,298.01 321.91,298.09 324.57,298.09 327.32,298.18 330.07,298.26 332.74,298.34 335.49,298.5 338.15,298.59 340.9,298.75 343.57,298.91 346.23,299.08 348.89,299.33 351.56,299.49 354.14,299.74 356.8,299.91 359.47,300.16 362.05,300.41 364.63,300.66 367.21,300.91 369.8,301.16 372.38,301.49 374.88,301.74 377.38,301.99 379.96,302.32 382.46,302.57 384.96,302.82 387.46,303.15 389.88,303.4 392.38,303.73 394.88,303.98 397.29,304.32 399.7,304.57 402.12,304.82 404.62,305.15 406.95,305.4 409.36,305.65 411.78,305.9 414.19,306.15 416.52,306.48 418.94,306.73 421.35,306.98 423.68,307.23 426.02,307.48 428.43,307.64 430.76,307.89 433.09,308.14 435.43,308.39 437.76,308.64 440.09,308.81 442.42,309.06 444.75,309.22 447.09,309.47 449.42,309.64 451.75,309.89 454.08,310.05 456.41,310.21 458.75,310.46 461,310.63 463.33,310.79 465.66,310.96 467.99,311.12 470.24,311.29 472.57,311.45 474.91,311.61 477.16,311.78 479.49,311.94 481.82,312.11 484.07,312.27 486.4,312.43 488.65,312.52 490.98,312.68 493.32,312.84 495.57,312.93 497.9,313.09 500.15,313.25 502.48,313.34 504.81,313.5 507.06,313.58 509.39,313.75 511.64,313.83 513.98,313.91 516.23,314.07 518.56,314.16 520.89,314.24 523.14,314.4 525.47,314.48 527.72,314.57 530.05,314.65 532.3,314.81 534.64,314.89 536.97,314.98 539.22,315.06 539.88,315.06 "
       transform="matrix(1.2921037,0,0,-1.2921037,-25.134153,1046.356)"
       style="font-style:normal;font-variant:normal;font-weight:normal;font-stretch:normal;letter-spacing:normal;word-spacing:normal;text-anchor:start;fill:none;stroke:#8c83fc;stroke-width:2;stroke-linecap:butt;stroke-linejoin:round;stroke-miterlimit:10.43299961000000000;stroke-opacity:1;stroke-dasharray:none;stroke-dashoffset:0" />
    <polyline
       id="polyline2241"
       points="93,315.17 93.5,315.17 95.75,315.09 98.082,315.01 100.41,314.93 102.66,314.76 105,314.68 107.25,314.6 109.58,314.52 111.83,314.35 114.16,314.27 116.49,314.19 118.74,314.02 121.07,313.94 123.32,313.86 125.66,313.7 127.91,313.61 130.24,313.45 132.57,313.37 134.82,313.2 137.15,313.04 139.4,312.96 141.73,312.79 144.07,312.63 146.32,312.55 148.65,312.38 150.9,312.22 153.23,312.05 155.56,311.89 157.81,311.73 160.15,311.56 162.48,311.4 164.73,311.23 167.06,311.07 169.39,310.91 171.72,310.74 173.97,310.58 176.3,310.33 178.64,310.16 180.97,310 183.3,309.75 185.63,309.59 187.96,309.34 190.3,309.17 192.63,308.92 194.96,308.76 197.29,308.51 199.62,308.26 201.96,308.01 204.29,307.76 206.7,307.59 209.04,307.34 211.37,307.09 213.78,306.84 216.2,306.59 218.53,306.26 220.94,306.01 223.35,305.76 225.77,305.51 228.1,305.26 230.6,304.93 233.02,304.68 235.43,304.43 237.84,304.1 240.34,303.85 242.84,303.52 245.26,303.27 247.76,302.93 250.26,302.68 252.76,302.43 255.34,302.1 257.84,301.85 260.34,301.6 262.92,301.27 265.5,301.02 268.09,300.77 270.67,300.52 273.25,300.27 275.91,300.02 278.58,299.86 281.16,299.61 283.82,299.44 286.49,299.19 289.15,299.03 291.82,298.86 294.57,298.7 297.23,298.62 299.98,298.45 "
       transform="matrix(1.2921037,0,0,-1.2921037,-25.134153,1046.356)"
       style="font-style:normal;font-variant:normal;font-weight:normal;font-stretch:normal;letter-spacing:normal;word-spacing:normal;text-anchor:start;fill:none;stroke:#8c83fc;stroke-width:2;stroke-linecap:butt;stroke-linejoin:round;stroke-miterlimit:10.43299961000000000;stroke-opacity:1;stroke-dasharray:none;stroke-dashoffset:0" />
    <polyline
       id="polyline2243"
       points="300.41,524.42 303.08,524.5 305.74,524.59 308.41,524.59 311.07,524.67 313.73,524.67 316.4,524.67 319.06,524.67 321.73,524.67 324.39,524.59 327.05,524.59 329.72,524.5 332.38,524.42 334.96,524.34 337.63,524.26 340.29,524.18 342.96,524.01 345.54,523.93 348.2,523.77 350.79,523.6 353.37,523.44 355.95,523.27 358.61,523.11 361.2,522.95 363.78,522.7 366.28,522.53 368.86,522.37 371.44,522.12 373.94,521.95 376.52,521.7 379.02,521.45 381.52,521.29 384.02,521.04 386.52,520.79 389.02,520.54 391.52,520.29 394.02,520.12 396.44,519.88 398.94,519.62 401.35,519.38 403.85,519.12 406.27,518.88 408.68,518.71 411.09,518.46 413.51,518.21 415.92,517.96 418.34,517.71 420.75,517.55 423.16,517.3 425.5,517.05 427.91,516.88 430.24,516.63 432.66,516.38 434.99,516.22 437.4,515.97 439.73,515.8 442.15,515.55 444.48,515.39 446.81,515.14 449.14,514.98 451.48,514.81 453.89,514.65 456.22,514.4 458.55,514.23 460.89,514.07 463.22,513.91 465.55,513.74 467.88,513.49 470.21,513.33 472.55,513.16 474.88,513 477.21,512.84 479.46,512.75 481.79,512.59 484.12,512.43 486.46,512.26 488.79,512.1 491.04,511.93 493.37,511.85 495.7,511.69 498.04,511.52 500.37,511.44 502.62,511.28 504.95,511.11 507.28,511.03 509.53,510.87 511.86,510.79 514.2,510.62 516.53,510.54 518.78,510.38 521.11,510.29 523.44,510.21 525.69,510.05 528.02,509.96 530.35,509.88 532.6,509.72 534.94,509.64 537.27,509.55 539.52,509.39 539.85,509.39 "
       transform="matrix(1.2921037,0,0,-1.2921037,-25.134153,1046.356)"
       style="font-style:normal;font-variant:normal;font-weight:normal;font-stretch:normal;letter-spacing:normal;word-spacing:normal;text-anchor:start;fill:none;stroke:#8c83fc;stroke-width:2;stroke-linecap:butt;stroke-linejoin:round;stroke-miterlimit:10.43299961000000000;stroke-opacity:1;stroke-dasharray:none;stroke-dashoffset:0" />
    <polyline
       id="polyline2245"
       points="93,509.25 93.164,509.25 95.414,509.42 97.746,509.5 100.08,509.58 102.33,509.75 104.66,509.83 106.99,509.91 109.24,510.07 111.57,510.16 113.91,510.24 116.16,510.4 118.49,510.48 120.82,510.65 123.15,510.73 125.4,510.89 127.73,510.98 130.07,511.14 132.32,511.3 134.65,511.39 136.98,511.55 139.31,511.71 141.65,511.8 143.9,511.96 146.23,512.12 148.56,512.29 150.89,512.45 153.22,512.62 155.47,512.7 157.8,512.86 160.14,513.03 162.47,513.19 164.8,513.35 167.13,513.6 169.46,513.77 171.8,513.93 174.13,514.1 176.46,514.26 178.79,514.51 181.21,514.68 183.54,514.84 185.87,515 188.2,515.25 190.54,515.42 192.95,515.67 195.28,515.83 197.7,516.08 200.03,516.25 202.44,516.5 204.77,516.75 207.19,516.91 209.52,517.16 211.93,517.41 214.35,517.57 216.76,517.82 219.18,518.07 221.59,518.32 224,518.57 226.42,518.74 228.83,518.99 231.33,519.24 233.75,519.49 236.25,519.74 238.66,519.99 241.16,520.15 243.66,520.4 246.16,520.65 248.66,520.9 251.16,521.15 253.66,521.32 256.16,521.57 258.74,521.82 261.24,521.98 263.82,522.23 266.41,522.4 268.91,522.56 271.49,522.81 274.07,522.97 276.73,523.14 279.32,523.3 281.9,523.47 284.48,523.63 287.14,523.79 289.73,523.88 292.39,524.04 295.05,524.12 297.72,524.2 300.3,524.28 "
       transform="matrix(1.2921037,0,0,-1.2921037,-25.134153,1046.356)"
       style="font-style:normal;font-variant:normal;font-weight:normal;font-stretch:normal;letter-spacing:normal;word-spacing:normal;text-anchor:start;fill:none;stroke:#8c83fc;stroke-width:2;stroke-linecap:butt;stroke-linejoin:round;stroke-miterlimit:10.43299961000000000;stroke-opacity:1;stroke-dasharray:none;stroke-dashoffset:0" />
    <polyline
       id="polyline2247"
       points="300.41,282.75 303.08,282.67 305.74,282.59 308.41,282.59 311.07,282.51 313.73,282.51 316.4,282.51 319.06,282.51 321.73,282.51 324.39,282.59 327.05,282.59 329.72,282.67 332.38,282.75 334.96,282.84 337.63,282.92 340.29,283 342.96,283.16 345.54,283.25 348.2,283.41 350.79,283.57 353.37,283.74 355.95,283.9 358.61,284.07 361.2,284.23 363.78,284.48 366.28,284.64 368.86,284.81 371.44,285.06 373.94,285.22 376.52,285.47 379.02,285.72 381.52,285.89 384.02,286.14 386.52,286.39 389.02,286.64 391.52,286.89 394.02,287.05 396.44,287.3 398.94,287.55 401.35,287.8 403.85,288.05 406.27,288.3 408.68,288.46 411.09,288.71 413.51,288.96 415.92,289.21 418.34,289.46 420.75,289.63 423.16,289.88 425.5,290.13 427.91,290.29 430.24,290.54 432.66,290.79 434.99,290.96 437.4,291.21 439.73,291.37 442.15,291.62 444.48,291.79 446.81,292.04 449.14,292.2 451.48,292.36 453.89,292.53 456.22,292.78 458.55,292.94 460.89,293.11 463.22,293.27 465.55,293.43 467.88,293.68 470.21,293.85 472.55,294.01 474.88,294.18 477.21,294.34 479.46,294.42 481.79,294.59 484.12,294.75 486.46,294.91 488.79,295.08 491.04,295.24 493.37,295.32 495.7,295.49 498.04,295.65 500.37,295.73 502.62,295.9 504.95,296.06 507.28,296.14 509.53,296.31 511.86,296.39 514.2,296.55 516.53,296.64 518.78,296.8 521.11,296.88 523.44,296.96 525.69,297.13 528.02,297.21 530.35,297.29 532.6,297.46 534.94,297.54 537.27,297.62 539.52,297.79 539.85,297.79 "
       transform="matrix(1.2921037,0,0,-1.2921037,-25.134153,1046.356)"
       style="font-style:normal;font-variant:normal;font-weight:normal;font-stretch:normal;letter-spacing:normal;word-spacing:normal;text-anchor:start;fill:none;stroke:#8c83fc;stroke-width:2;stroke-linecap:butt;stroke-linejoin:round;stroke-miterlimit:10.43299961000000000;stroke-opacity:1;stroke-dasharray:none;stroke-dashoffset:0" />
    <polyline
       id="polyline2249"
       points="93,297.92 93.164,297.92 95.414,297.76 97.746,297.68 100.08,297.59 102.33,297.43 104.66,297.35 106.99,297.27 109.24,297.1 111.57,297.02 113.91,296.94 116.16,296.77 118.49,296.69 120.82,296.53 123.15,296.45 125.4,296.28 127.73,296.2 130.07,296.04 132.32,295.87 134.65,295.79 136.98,295.62 139.31,295.46 141.65,295.38 143.9,295.21 146.23,295.05 148.56,294.89 150.89,294.72 153.22,294.56 155.47,294.48 157.8,294.31 160.14,294.15 162.47,293.98 164.8,293.82 167.13,293.57 169.46,293.41 171.8,293.24 174.13,293.08 176.46,292.91 178.79,292.66 181.21,292.5 183.54,292.34 185.87,292.17 188.2,291.92 190.54,291.76 192.95,291.51 195.28,291.34 197.7,291.09 200.03,290.93 202.44,290.68 204.77,290.43 207.19,290.27 209.52,290.02 211.93,289.77 214.35,289.6 216.76,289.35 219.18,289.1 221.59,288.85 224,288.6 226.42,288.44 228.83,288.19 231.33,287.94 233.75,287.69 236.25,287.44 238.66,287.19 241.16,287.02 243.66,286.77 246.16,286.52 248.66,286.27 251.16,286.02 253.66,285.86 256.16,285.61 258.74,285.36 261.24,285.2 263.82,284.95 266.41,284.78 268.91,284.62 271.49,284.37 274.07,284.2 276.73,284.04 279.32,283.88 281.9,283.71 284.48,283.55 287.14,283.38 289.73,283.3 292.39,283.14 295.05,283.05 297.72,282.97 300.3,282.89 "
       transform="matrix(1.2921037,0,0,-1.2921037,-25.134153,1046.356)"
       style="font-style:normal;font-variant:normal;font-weight:normal;font-stretch:normal;letter-spacing:normal;word-spacing:normal;text-anchor:start;fill:none;stroke:#8c83fc;stroke-width:2;stroke-linecap:butt;stroke-linejoin:round;stroke-miterlimit:10.43299961000000000;stroke-opacity:1;stroke-dasharray:none;stroke-dashoffset:0" />
    <polyline
       id="polyline2251"
       points="300.75,540.09 303.33,540.17 305.91,540.17 308.58,540.17 311.16,540.25 313.82,540.25 316.41,540.25 318.99,540.25 321.65,540.25 324.23,540.17 326.9,540.17 329.48,540.17 332.06,540.09 334.73,540.01 337.31,539.93 339.89,539.84 342.47,539.76 345.05,539.68 347.64,539.6 350.22,539.43 352.8,539.35 355.38,539.19 357.96,539.1 360.55,538.94 363.05,538.78 365.63,538.61 368.21,538.45 370.71,538.28 373.21,538.12 375.79,537.96 378.29,537.79 380.79,537.63 383.29,537.47 385.79,537.22 388.29,537.05 390.79,536.89 393.29,536.64 395.79,536.47 398.21,536.31 400.71,536.06 403.12,535.9 405.62,535.65 408.04,535.48 410.45,535.23 412.86,535.07 415.36,534.9 417.78,534.65 420.19,534.49 422.61,534.24 425.02,534.07 427.43,533.91 429.77,533.66 432.18,533.5 434.59,533.25 436.93,533.08 439.34,532.92 441.75,532.75 444.09,532.5 446.5,532.34 448.83,532.18 451.25,532.01 453.58,531.76 455.91,531.6 458.32,531.43 460.66,531.27 462.99,531.1 465.32,530.94 467.73,530.78 470.07,530.61 472.4,530.45 474.73,530.28 477.06,530.12 479.39,529.96 481.73,529.79 484.06,529.71 486.39,529.55 488.72,529.38 491.05,529.22 493.39,529.05 495.72,528.97 498.05,528.81 500.38,528.65 502.71,528.56 505.05,528.4 507.38,528.32 509.63,528.15 511.96,527.99 514.29,527.91 516.62,527.74 518.96,527.66 521.29,527.5 523.54,527.41 525.87,527.33 528.2,527.17 530.53,527.09 532.87,526.92 535.12,526.84 537.45,526.76 539.78,526.68 539.86,526.59 "
       transform="matrix(1.2921037,0,0,-1.2921037,-25.134153,1046.356)"
       style="font-style:normal;font-variant:normal;font-weight:normal;font-stretch:normal;letter-spacing:normal;word-spacing:normal;text-anchor:start;fill:none;stroke:#8c83fc;stroke-width:2;stroke-linecap:butt;stroke-linejoin:round;stroke-miterlimit:10.43299961000000000;stroke-opacity:1;stroke-dasharray:none;stroke-dashoffset:0" />
    <polyline
       id="polyline2253"
       points="93,526.5 95.25,526.59 97.582,526.67 99.832,526.75 102.16,526.91 104.5,527 106.83,527.16 109.16,527.24 111.41,527.32 113.74,527.49 116.07,527.57 118.41,527.73 120.74,527.82 123.07,527.98 125.32,528.15 127.65,528.23 129.98,528.39 132.32,528.47 134.65,528.64 136.98,528.8 139.31,528.88 141.65,529.05 143.98,529.21 146.31,529.38 148.64,529.54 150.97,529.62 153.3,529.78 155.64,529.95 157.97,530.11 160.3,530.28 162.63,530.44 164.96,530.6 167.38,530.77 169.71,530.93 172.04,531.1 174.38,531.26 176.79,531.43 179.12,531.59 181.45,531.84 183.87,532 186.2,532.17 188.61,532.33 190.95,532.58 193.36,532.75 195.77,532.91 198.1,533.07 200.52,533.32 202.93,533.49 205.27,533.74 207.68,533.9 210.09,534.07 212.51,534.32 214.92,534.48 217.34,534.73 219.84,534.9 222.25,535.06 224.66,535.31 227.08,535.47 229.58,535.72 231.99,535.89 234.49,536.14 236.91,536.3 239.41,536.47 241.91,536.72 244.41,536.88 246.91,537.04 249.41,537.29 251.91,537.46 254.41,537.62 256.91,537.78 259.49,537.95 261.99,538.11 264.49,538.28 267.07,538.44 269.65,538.6 272.15,538.77 274.73,538.93 277.32,539.02 279.9,539.18 282.48,539.26 285.06,539.43 287.64,539.51 290.23,539.59 292.81,539.67 295.39,539.75 297.97,539.84 300.64,539.92 "
       transform="matrix(1.2921037,0,0,-1.2921037,-25.134153,1046.356)"
       style="font-style:normal;font-variant:normal;font-weight:normal;font-stretch:normal;letter-spacing:normal;word-spacing:normal;text-anchor:start;fill:none;stroke:#8c83fc;stroke-width:2;stroke-linecap:butt;stroke-linejoin:round;stroke-miterlimit:10.43299961000000000;stroke-opacity:1;stroke-dasharray:none;stroke-dashoffset:0" />
    <polyline
       id="polyline2255"
       points="300.75,267.09 303.33,267.01 305.91,267.01 308.58,267.01 311.16,266.93 313.82,266.93 316.41,266.93 318.99,266.93 321.65,266.93 324.23,267.01 326.9,267.01 329.48,267.01 332.06,267.09 334.73,267.17 337.31,267.25 339.89,267.34 342.47,267.42 345.05,267.5 347.64,267.58 350.22,267.75 352.8,267.83 355.38,267.99 357.96,268.07 360.55,268.24 363.05,268.4 365.63,268.57 368.21,268.73 370.71,268.89 373.21,269.06 375.79,269.22 378.29,269.39 380.79,269.55 383.29,269.71 385.79,269.96 388.29,270.13 390.79,270.29 393.29,270.54 395.79,270.71 398.21,270.87 400.71,271.12 403.12,271.29 405.62,271.54 408.04,271.7 410.45,271.95 412.86,272.11 415.36,272.28 417.78,272.53 420.19,272.69 422.61,272.94 425.02,273.11 427.43,273.27 429.77,273.52 432.18,273.68 434.59,273.93 436.93,274.1 439.34,274.26 441.75,274.43 444.09,274.68 446.5,274.84 448.83,275 451.25,275.17 453.58,275.42 455.91,275.58 458.32,275.75 460.66,275.91 462.99,276.07 465.32,276.24 467.73,276.4 470.07,276.57 472.4,276.73 474.73,276.89 477.06,277.06 479.39,277.22 481.73,277.39 484.06,277.47 486.39,277.63 488.72,277.8 491.05,277.96 493.39,278.12 495.72,278.21 498.05,278.37 500.38,278.54 502.71,278.62 505.05,278.78 507.38,278.86 509.63,279.03 511.96,279.19 514.29,279.27 516.62,279.44 518.96,279.52 521.29,279.68 523.54,279.77 525.87,279.85 528.2,280.01 530.53,280.09 532.87,280.26 535.12,280.34 537.45,280.42 539.78,280.5 539.86,280.59 "
       transform="matrix(1.2921037,0,0,-1.2921037,-25.134153,1046.356)"
       style="font-style:normal;font-variant:normal;font-weight:normal;font-stretch:normal;letter-spacing:normal;word-spacing:normal;text-anchor:start;fill:none;stroke:#8c83fc;stroke-width:2;stroke-linecap:butt;stroke-linejoin:round;stroke-miterlimit:10.43299961000000000;stroke-opacity:1;stroke-dasharray:none;stroke-dashoffset:0" />
    <polyline
       id="polyline2257"
       points="93,280.67 95.25,280.59 97.582,280.51 99.832,280.43 102.16,280.26 104.5,280.18 106.83,280.02 109.16,279.93 111.41,279.85 113.74,279.69 116.07,279.61 118.41,279.44 120.74,279.36 123.07,279.2 125.32,279.03 127.65,278.95 129.98,278.79 132.32,278.7 134.65,278.54 136.98,278.38 139.31,278.29 141.65,278.13 143.98,277.96 146.31,277.8 148.64,277.64 150.97,277.55 153.3,277.39 155.64,277.23 157.97,277.06 160.3,276.9 162.63,276.73 164.96,276.57 167.38,276.41 169.71,276.24 172.04,276.08 174.38,275.91 176.79,275.75 179.12,275.59 181.45,275.34 183.87,275.17 186.2,275.01 188.61,274.84 190.95,274.59 193.36,274.43 195.77,274.27 198.1,274.1 200.52,273.85 202.93,273.69 205.27,273.44 207.68,273.27 210.09,273.11 212.51,272.86 214.92,272.7 217.34,272.45 219.84,272.28 222.25,272.12 224.66,271.87 227.08,271.7 229.58,271.45 231.99,271.29 234.49,271.04 236.91,270.88 239.41,270.71 241.91,270.46 244.41,270.3 246.91,270.13 249.41,269.88 251.91,269.72 254.41,269.55 256.91,269.39 259.49,269.23 261.99,269.06 264.49,268.9 267.07,268.73 269.65,268.57 272.15,268.41 274.73,268.24 277.32,268.16 279.9,268 282.48,267.91 285.06,267.75 287.64,267.67 290.23,267.59 292.81,267.5 295.39,267.42 297.97,267.34 300.64,267.26 "
       transform="matrix(1.2921037,0,0,-1.2921037,-25.134153,1046.356)"
       style="font-style:normal;font-variant:normal;font-weight:normal;font-stretch:normal;letter-spacing:normal;word-spacing:normal;text-anchor:start;fill:none;stroke:#8c83fc;stroke-width:2;stroke-linecap:butt;stroke-linejoin:round;stroke-miterlimit:10.43299961000000000;stroke-opacity:1;stroke-dasharray:none;stroke-dashoffset:0" />
    <polyline
       id="polyline2259"
       points="298.33,555.67 300.91,555.75 303.5,555.84 306.08,555.84 308.66,555.84 311.24,555.92 313.82,555.92 316.41,555.92 318.99,555.92 321.57,555.92 324.15,555.84 326.73,555.84 329.32,555.84 331.9,555.75 334.48,555.67 336.98,555.67 339.56,555.59 342.14,555.51 344.73,555.43 347.31,555.34 349.81,555.26 352.39,555.18 354.97,555.1 357.47,554.93 360.05,554.85 362.55,554.77 365.14,554.6 367.64,554.52 370.14,554.36 372.64,554.2 375.22,554.11 377.72,553.95 380.22,553.78 382.72,553.62 385.22,553.46 387.72,553.29 390.22,553.13 392.63,552.97 395.13,552.8 397.63,552.64 400.05,552.47 402.55,552.31 404.96,552.15 407.46,551.98 409.88,551.82 412.29,551.65 414.79,551.49 417.2,551.32 419.62,551.16 422.03,550.91 424.45,550.75 426.86,550.58 429.27,550.42 431.69,550.25 434.1,550.09 436.52,549.93 438.93,549.76 441.26,549.6 443.68,549.43 446.09,549.27 448.42,549.02 450.84,548.85 453.25,548.69 455.58,548.53 458,548.36 460.33,548.2 462.66,548.12 465.07,547.95 467.41,547.79 469.82,547.62 472.15,547.46 474.48,547.3 476.82,547.13 479.23,546.97 481.56,546.89 483.89,546.72 486.23,546.56 488.56,546.4 490.97,546.31 493.3,546.15 495.64,545.98 497.97,545.9 500.3,545.74 502.63,545.57 504.96,545.49 507.3,545.33 509.63,545.25 511.96,545.08 514.29,544.92 516.62,544.84 518.96,544.67 521.29,544.59 523.62,544.51 525.95,544.34 528.28,544.26 530.62,544.1 532.95,544.02 535.2,543.93 537.53,543.77 539.86,543.69 "
       transform="matrix(1.2921037,0,0,-1.2921037,-25.134153,1046.356)"
       style="font-style:normal;font-variant:normal;font-weight:normal;font-stretch:normal;letter-spacing:normal;word-spacing:normal;text-anchor:start;fill:none;stroke:#8c83fc;stroke-width:2;stroke-linecap:butt;stroke-linejoin:round;stroke-miterlimit:10.43299961000000000;stroke-opacity:1;stroke-dasharray:none;stroke-dashoffset:0" />
    <polyline
       id="polyline2261"
       points="93,543.5 95.164,543.59 97.496,543.75 99.746,543.83 102.08,543.91 104.41,544.08 106.74,544.16 109.07,544.32 111.41,544.41 113.74,544.49 116.07,544.65 118.4,544.73 120.73,544.9 123.07,545.06 125.4,545.15 127.73,545.31 130.06,545.39 132.4,545.55 134.73,545.72 137.06,545.8 139.39,545.97 141.72,546.13 144.14,546.21 146.47,546.38 148.8,546.54 151.13,546.7 153.46,546.78 155.88,546.95 158.21,547.11 160.54,547.28 162.88,547.44 165.29,547.6 167.62,547.77 170.04,547.93 172.37,548.02 174.7,548.18 177.11,548.34 179.45,548.51 181.86,548.67 184.27,548.84 186.6,549.09 189.02,549.25 191.43,549.41 193.77,549.58 196.18,549.74 198.59,549.91 201.01,550.07 203.42,550.23 205.84,550.4 208.25,550.56 210.66,550.73 213.08,550.98 215.49,551.14 217.91,551.3 220.41,551.47 222.82,551.63 225.23,551.8 227.73,551.96 230.15,552.12 232.65,552.29 235.06,552.45 237.56,552.62 240.06,552.78 242.48,552.95 244.98,553.11 247.48,553.27 249.98,553.44 252.48,553.6 254.98,553.77 257.48,553.93 260.06,554.01 262.56,554.18 265.06,554.34 267.56,554.42 270.14,554.59 272.64,554.67 275.22,554.75 277.72,554.91 280.3,555 282.89,555.08 285.39,555.16 287.97,555.24 290.55,555.32 293.13,555.41 295.71,555.49 298.21,555.49 "
       transform="matrix(1.2921037,0,0,-1.2921037,-25.134153,1046.356)"
       style="font-style:normal;font-variant:normal;font-weight:normal;font-stretch:normal;letter-spacing:normal;word-spacing:normal;text-anchor:start;fill:none;stroke:#8c83fc;stroke-width:2;stroke-linecap:butt;stroke-linejoin:round;stroke-miterlimit:10.43299961000000000;stroke-opacity:1;stroke-dasharray:none;stroke-dashoffset:0" />
    <polyline
       id="polyline2263"
       points="298.33,251.5 300.91,251.42 303.5,251.34 306.08,251.34 308.66,251.34 311.24,251.26 313.82,251.26 316.41,251.26 318.99,251.26 321.57,251.26 324.15,251.34 326.73,251.34 329.32,251.34 331.9,251.42 334.48,251.5 336.98,251.5 339.56,251.59 342.14,251.67 344.73,251.75 347.31,251.83 349.81,251.91 352.39,252 354.97,252.08 357.47,252.24 360.05,252.32 362.55,252.41 365.14,252.57 367.64,252.65 370.14,252.82 372.64,252.98 375.22,253.06 377.72,253.23 380.22,253.39 382.72,253.55 385.22,253.72 387.72,253.88 390.22,254.05 392.63,254.21 395.13,254.38 397.63,254.54 400.05,254.7 402.55,254.87 404.96,255.03 407.46,255.2 409.88,255.36 412.29,255.52 414.79,255.69 417.2,255.85 419.62,256.02 422.03,256.27 424.45,256.43 426.86,256.59 429.27,256.76 431.69,256.92 434.1,257.09 436.52,257.25 438.93,257.41 441.26,257.58 443.68,257.74 446.09,257.91 448.42,258.16 450.84,258.32 453.25,258.48 455.58,258.65 458,258.81 460.33,258.98 462.66,259.06 465.07,259.22 467.41,259.39 469.82,259.55 472.15,259.71 474.48,259.88 476.82,260.04 479.23,260.21 481.56,260.29 483.89,260.45 486.23,260.62 488.56,260.78 490.97,260.86 493.3,261.03 495.64,261.19 497.97,261.27 500.3,261.44 502.63,261.6 504.96,261.68 507.3,261.85 509.63,261.93 511.96,262.09 514.29,262.26 516.62,262.34 518.96,262.5 521.29,262.59 523.62,262.67 525.95,262.83 528.28,262.91 530.62,263.08 532.95,263.16 535.2,263.24 537.53,263.41 539.86,263.49 "
       transform="matrix(1.2921037,0,0,-1.2921037,-25.134153,1046.356)"
       style="font-style:normal;font-variant:normal;font-weight:normal;font-stretch:normal;letter-spacing:normal;word-spacing:normal;text-anchor:start;fill:none;stroke:#8c83fc;stroke-width:2;stroke-linecap:butt;stroke-linejoin:round;stroke-miterlimit:10.43299961000000000;stroke-opacity:1;stroke-dasharray:none;stroke-dashoffset:0" />
    <polyline
       id="polyline2265"
       points="93,263.67 95.164,263.59 97.496,263.43 99.746,263.34 102.08,263.26 104.41,263.1 106.74,263.02 109.07,262.85 111.41,262.77 113.74,262.69 116.07,262.52 118.4,262.44 120.73,262.28 123.07,262.11 125.4,262.03 127.73,261.87 130.06,261.79 132.4,261.62 134.73,261.46 137.06,261.38 139.39,261.21 141.72,261.05 144.14,260.96 146.47,260.8 148.8,260.64 151.13,260.47 153.46,260.39 155.88,260.23 158.21,260.06 160.54,259.9 162.88,259.73 165.29,259.57 167.62,259.41 170.04,259.24 172.37,259.16 174.7,259 177.11,258.83 179.45,258.67 181.86,258.5 184.27,258.34 186.6,258.09 189.02,257.93 191.43,257.76 193.77,257.6 196.18,257.43 198.59,257.27 201.01,257.11 203.42,256.94 205.84,256.78 208.25,256.61 210.66,256.45 213.08,256.2 215.49,256.04 217.91,255.87 220.41,255.71 222.82,255.54 225.23,255.38 227.73,255.21 230.15,255.05 232.65,254.89 235.06,254.72 237.56,254.56 240.06,254.4 242.48,254.23 244.98,254.07 247.48,253.9 249.98,253.74 252.48,253.57 254.98,253.41 257.48,253.25 260.06,253.16 262.56,253 265.06,252.84 267.56,252.75 270.14,252.59 272.64,252.51 275.22,252.43 277.72,252.26 280.3,252.18 282.89,252.1 285.39,252.02 287.97,251.93 290.55,251.85 293.13,251.77 295.71,251.69 298.21,251.69 "
       transform="matrix(1.2921037,0,0,-1.2921037,-25.134153,1046.356)"
       style="font-style:normal;font-variant:normal;font-weight:normal;font-stretch:normal;letter-spacing:normal;word-spacing:normal;text-anchor:start;fill:none;stroke:#8c83fc;stroke-width:2;stroke-linecap:butt;stroke-linejoin:round;stroke-miterlimit:10.43299961000000000;stroke-opacity:1;stroke-dasharray:none;stroke-dashoffset:0" />
  </g>
  <path
     inkscape:connector-curvature="0"
     id="path2461"
     style="fill:url(#radialGradient3899);fill-opacity:1"
     d="m 245.03272,290.31368 a 42.653945,42.653946 0 1 1 -85.30788,0 42.653945,42.653946 0 1 1 85.30788,0 z" />
  <g
     id="g2437"
     transform="translate(-185.65965,-234.83735)">
    <path
       inkscape:connector-curvature="0"
       id="path4428"
       style="fill:#000000;fill-opacity:1;fill-rule:evenodd;stroke:none"
       d="m 384.03125,567.53125 0,107.90625 6.71875,0 0,-107.90625 -6.71875,0 z" />
    <path
       inkscape:connector-curvature="0"
       id="path2443"
       style="font-size:12px;fill-rule:evenodd;stroke-width:0.625;stroke-linejoin:round"
       d="m 403.71386,640.16308 -16.25902,44.21512 -16.25901,-44.21513 c 9.59931,7.06373 22.73284,7.02303 32.51803,1e-5 z" />
  </g>
  <g
     id="g2429"
     transform="translate(-185.65965,-234.83735)">
    <path
       inkscape:connector-curvature="0"
       id="path5603"
       style="fill:#000000;fill-opacity:1;fill-rule:evenodd;stroke:none"
       d="m 384.15625,374.6875 0,107.9375 6.75,0 0,-107.9375 -6.75,0 z" />
    <path
       inkscape:connector-curvature="0"
       id="path2435"
       style="font-size:12px;fill-rule:evenodd;stroke-width:0.625;stroke-linejoin:round"
       d="m 371.19583,409.98158 16.25902,-44.21512 16.25901,44.21513 c -9.59931,-7.06373 -22.73284,-7.02303 -32.51803,-10e-6 z" />
  </g>
  <g
     id="g2421"
     transform="translate(-185.65965,-234.83735)"
     style="stroke:#8c83fc;stroke-opacity:1;fill:#8c83fc;fill-opacity:1">
    <path
       inkscape:connector-curvature="0"
       id="path6576"
       style="fill:#8c83fc;fill-opacity:1;fill-rule:evenodd;stroke:#8c83fc;stroke-opacity:1"
       d="m 269.34375,518.03125 c 0,1.40679 0,1.11727 0,2 0,0.003 0,0.0172 0,0.0312 0,0.0167 0,0.0305 0,0.0625 0,0.0961 0,0.26401 0,0.46875 0,0.40948 0,0.97918 0,1.5625 0,0.58332 0,1.18427 0,1.59375 0,0.20474 0,0.37266 0,0.46875 0,0.003 0,0.0603 0,0.0625 0,0.014 0,0.0278 0,0.0312 0,0.88272 0,0.59321 0,2 l 3.28125,0 c 0,-1.40679 0,-1.11727 0,-2 0,-1.87579 0,-4.09764 0,-4.25 0,-0.014 0,-0.0278 0,-0.0312 0,-0.88273 0,-0.59321 0,-2 l -3.28125,0 z" />
    <path
       inkscape:connector-curvature="0"
       id="path2427"
       style="font-size:12px;fill-rule:evenodd;stroke-width:0.62500000000000000;stroke-linejoin:round;stroke:#8c83fc;stroke-opacity:1;fill:#8c83fc;fill-opacity:1"
       d="m 263.0057,535.29351 7.94825,-21.61465 7.94825,21.61465 c -4.69264,-3.45311 -11.11299,-3.43322 -15.8965,0 z" />
  </g>
  <g
     id="g2413"
     transform="translate(-185.65965,-234.83735)"
     style="stroke:#8c83fc;stroke-opacity:1;fill:#8c83fc;fill-opacity:1">
    <path
       inkscape:connector-curvature="0"
       id="path6578"
       style="fill:#8c83fc;fill-opacity:1;fill-rule:evenodd;stroke:#8c83fc;stroke-opacity:1"
       d="m 502,517.65625 c 0,1.40679 0,1.11727 0,2 0,0.003 0,0.0172 0,0.0312 0,0.0167 0,0.0305 0,0.0625 0,0.0961 0,0.26401 0,0.46875 0,0.40948 0,0.97918 0,1.5625 0,0.58332 0,1.18427 0,1.59375 0,0.20474 0,0.37266 0,0.46875 0,0.003 0,0.0603 0,0.0625 0,0.014 0,0.0278 0,0.0312 0,0.87836 0,0.57698 0,1.96875 l 3.28125,0 c 0,-1.39177 0,-1.09039 0,-1.96875 0,-1.89613 0,-4.09684 0,-4.25 0,-0.014 0,-0.0277 0,-0.0312 0,-0.88273 0,-0.59321 0,-2 l -3.28125,0 z" />
    <path
       inkscape:connector-curvature="0"
       id="path2419"
       style="font-size:12px;fill-rule:evenodd;stroke-width:0.62500000000000000;stroke-linejoin:round;stroke:#8c83fc;stroke-opacity:1;fill:#8c83fc;fill-opacity:1"
       d="m 495.65965,534.91437 7.94825,-21.61465 7.94825,21.61465 c -4.69264,-3.45311 -11.11299,-3.43322 -15.8965,0 z" />
  </g>
  <g
     id="g2405"
     transform="translate(-185.65965,-234.83735)"
     style="stroke:#8c83fc;stroke-opacity:1;fill:#8c83fc;fill-opacity:1">
    <path
       inkscape:connector-curvature="0"
       id="path6580"
       style="fill:#8c83fc;fill-opacity:1;fill-rule:evenodd;stroke:#8c83fc;stroke-opacity:1"
       d="m 542,517.65625 c 0,1.40679 0,1.11727 0,2 0,0.003 0,0.0172 0,0.0312 0,0.0167 0,0.0305 0,0.0625 0,0.0961 0,0.26401 0,0.46875 0,0.40948 0,0.97918 0,1.5625 0,0.58332 0,1.18427 0,1.59375 0,0.20474 0,0.37266 0,0.46875 0,0.003 0,0.0603 0,0.0625 0,0.014 0,0.0278 0,0.0312 0,0.87836 0,0.57698 0,1.96875 l 3.28125,0 c 0,-1.39177 0,-1.09039 0,-1.96875 0,-1.89613 0,-4.09684 0,-4.25 0,-0.014 0,-0.0277 0,-0.0312 0,-0.88273 0,-0.59321 0,-2 l -3.28125,0 z" />
    <path
       inkscape:connector-curvature="0"
       id="path2411"
       style="font-size:12px;fill-rule:evenodd;stroke-width:0.62500000000000000;stroke-linejoin:round;stroke:#8c83fc;stroke-opacity:1;fill:#8c83fc;fill-opacity:1"
       d="m 535.65965,534.91437 7.94825,-21.61465 7.94825,21.61465 c -4.69264,-3.45311 -11.11299,-3.43322 -15.8965,0 z" />
  </g>
  <g
     id="g2397"
     transform="translate(-185.65965,-234.83735)"
     style="stroke:#8c83fc;stroke-opacity:1;fill:#8c83fc;fill-opacity:1">
    <path
       inkscape:connector-curvature="0"
       id="path6582"
       style="fill:#8c83fc;fill-opacity:1;fill-rule:evenodd;stroke:#8c83fc;stroke-opacity:1"
       d="m 309.125,519.28125 c 0,1.40679 0,1.11727 0,2 0,0.004 0,0.0172 0,0.0312 0,0.0167 0,0.0305 0,0.0625 0,0.0961 0,0.26401 0,0.46875 0,0.40948 0,0.97919 0,1.5625 0,0.58331 0,1.15302 0,1.5625 0,0.20474 0,0.37266 0,0.46875 0,0.048 0,0.081 0,0.0937 0,0.88474 0,0.58614 0,2 l 3.3125,0 c 0,-1.41386 0,-1.11525 0,-2 0,-1.86627 0,-4.06675 0,-4.21875 0,-0.014 0,-0.0278 0,-0.0312 0,-0.88273 0,-0.59321 0,-2 l -3.3125,0 z" />
    <path
       inkscape:connector-curvature="0"
       id="path2403"
       style="font-size:12px;fill-rule:evenodd;stroke-width:0.62500000000000000;stroke-linejoin:round;stroke:#8c83fc;stroke-opacity:1;fill:#8c83fc;fill-opacity:1"
       d="m 302.79623,536.52902 7.94825,-21.61465 7.94825,21.61465 c -4.69264,-3.45311 -11.11299,-3.43322 -15.8965,0 z" />
  </g>
  <g
     id="g2389"
     transform="translate(-185.65965,-234.83735)"
     style="stroke:#8c83fc;stroke-opacity:1;fill:#8c83fc;fill-opacity:1">
    <path
       inkscape:connector-curvature="0"
       id="path6584"
       style="fill:#8c83fc;fill-opacity:1;fill-rule:evenodd;stroke:#8c83fc;stroke-opacity:1"
       d="m 229.34375,518.03125 c 0,1.40679 0,1.11727 0,2 0,0.003 0,0.0172 0,0.0312 0,0.0167 0,0.0305 0,0.0625 0,0.0961 0,0.26401 0,0.46875 0,0.40948 0,0.97918 0,1.5625 0,0.58332 0,1.18427 0,1.59375 0,0.20474 0,0.37266 0,0.46875 0,0.003 0,0.0603 0,0.0625 0,0.014 0,0.0278 0,0.0312 0,0.88272 0,0.59321 0,2 l 3.28125,0 c 0,-1.40679 0,-1.11727 0,-2 0,-1.87579 0,-4.09764 0,-4.25 0,-0.014 0,-0.0278 0,-0.0312 0,-0.88273 0,-0.59321 0,-2 l -3.28125,0 z" />
    <path
       inkscape:connector-curvature="0"
       id="path2395"
       style="font-size:12px;fill-rule:evenodd;stroke-width:0.62500000000000000;stroke-linejoin:round;stroke:#8c83fc;stroke-opacity:1;fill:#8c83fc;fill-opacity:1"
       d="m 223.0057,535.29351 7.94825,-21.61465 7.94825,21.61465 c -4.69264,-3.45311 -11.11299,-3.43322 -15.8965,0 z" />
  </g>
  <g
     id="g2381"
     transform="translate(-185.65965,-234.83735)"
     style="stroke:#8c83fc;stroke-opacity:1;fill:#8c83fc;fill-opacity:1">
    <path
       inkscape:connector-curvature="0"
       id="path6586"
       style="fill:#8c83fc;fill-opacity:1;fill-rule:evenodd;stroke:#8c83fc;stroke-opacity:1"
       d="m 462.375,517.65625 c 0,1.40679 0,1.11727 0,2 0,0.004 0,0.0172 0,0.0312 0,0.0167 0,0.0305 0,0.0625 0,0.0961 0,0.26401 0,0.46875 0,0.40948 0,0.97918 0,1.5625 0,0.58332 0,1.18427 0,1.59375 0,0.20474 0,0.37266 0,0.46875 0,0.003 0,0.0603 0,0.0625 0,0.014 0,0.0278 0,0.0312 0,0.87835 0,0.57698 0,1.96875 l 3.28125,0 c 0,-1.39177 0,-1.09039 0,-1.96875 0,-1.89615 0,-4.0969 0,-4.25 0,-0.014 0,-0.0278 0,-0.0312 0,-0.88272 0,-0.59321 0,-2 l -3.28125,0 z" />
    <path
       inkscape:connector-curvature="0"
       id="path2387"
       style="font-size:12px;fill-rule:evenodd;stroke-width:0.62500000000000000;stroke-linejoin:round;stroke:#8c83fc;stroke-opacity:1;fill:#8c83fc;fill-opacity:1"
       d="m 456.03879,534.91437 7.94825,-21.61465 7.94825,21.61465 c -4.69264,-3.45311 -11.11299,-3.43322 -15.8965,0 z" />
  </g>
  <g
     id="g6616"
     transform="translate(207.12454,-347.81967)">
    <text
       sodipodi:linespacing="125%"
       xml:space="preserve"
       id="text6604"
       style="font-size:48px;font-style:normal;font-variant:normal;font-weight:normal;font-stretch:normal;text-align:start;line-height:125%;writing-mode:lr-tb;text-anchor:start;fill:#000000;fill-opacity:1;stroke:none;font-family:Arial"
       y="447.65085"
       x="-23.226706"><tspan
         id="tspan6606"
         y="447.65085"
         x="-23.226706">F</tspan></text>
    <text
       sodipodi:linespacing="100%"
       xml:space="preserve"
       id="text6608"
       style="font-size:32px;font-style:normal;font-variant:normal;font-weight:normal;font-stretch:normal;text-align:start;line-height:100%;writing-mode:lr-tb;text-anchor:start;fill:#000000;fill-opacity:1;stroke:none;font-family:Arial"
       y="466.86816"
       x="-3.1497355"><tspan
         id="tspan6610"
         y="466.86816"
         x="-3.1497355">d</tspan></text>
  </g>
  <g
     id="g6622"
     transform="translate(200.3001,-71.80916)">
    <text
       sodipodi:linespacing="125%"
       xml:space="preserve"
       id="text6596"
       style="font-size:48px;font-style:normal;font-variant:normal;font-weight:normal;font-stretch:normal;text-align:start;line-height:125%;writing-mode:lr-tb;text-anchor:start;fill:#000000;fill-opacity:1;stroke:none;font-family:Arial"
       y="566.9599"
       x="-13.76553"><tspan
         id="tspan6598"
         y="566.9599"
         x="-13.76553">F</tspan></text>
    <text
       sodipodi:linespacing="100%"
       xml:space="preserve"
       id="text6612"
       style="font-size:32px;font-style:normal;font-variant:normal;font-weight:normal;font-stretch:normal;text-align:start;line-height:100%;writing-mode:lr-tb;text-anchor:start;fill:#000000;fill-opacity:1;stroke:none;font-family:Arial"
       y="585.15839"
       x="5.1912441"><tspan
         id="tspan6614"
         y="585.15839"
         x="5.1912441">g</tspan></text>
  </g>
</svg>
