<?xml version="1.0" encoding="utf-8" standalone="yes"?>
<!DOCTYPE svg PUBLIC "-//W3C//DTD SVG 1.1//EN"
"http://www.w3.org/Graphics/SVG/1.1/DTD/svg11.dtd">
<svg xmlns="http://www.w3.org/2000/svg" version="1.1"
	xmlns:xlink="http://www.w3.org/1999/xlink"
	width="210px" height="180px" viewBox="20 20 210 180" >
<title>Rotated square element on rod.</title>
<defs>
	<marker id="EndArrow" viewBox="0 0 10 10" refX="10" refY="5"
		markerUnits="strokeWidth" orient="auto"
		markerWidth="10" markerHeight="10">
		<polyline points="10,5 0,10 4,5 0,0 10,5" fill="black" />
	</marker>
	<marker id="StartArrow" viewBox="0 0 10 10" refX="0" refY="5"
		markerUnits="strokeWidth" orient="auto"
		markerWidth="10" markerHeight="10">
		<polyline points="0,5 10,0 6,5 10,10 0,5" fill="black" />
	</marker>
	<marker id="BlueArrow" viewBox="0 0 10 10" refX="10" refY="5"
		markerUnits="strokeWidth" orient="auto"
		markerWidth="10" markerHeight="10">
		<polyline points="10,5 0,10 4,5 0,0 10,5" fill="blue" />
	</marker>
</defs>
<path d="M30,70 L70,195 H130 L137,170 h20 M160,160 h-20 
	L147,140 h20 M170,130 h-20 L157,110 h20 M180,100 h-20 L170,70" 
	style="stroke:black;stroke-width:1;fill:none" />
<line x1="45" x2="153" y1="120" y2="120" style="stroke:blue;stroke-width:1" />
<g style="stroke:blue;stroke-width:1;fill:none;marker-end:url(#BlueArrow)" >
	<line x1="160" x2="220" y1="165" y2="165" />
	<line x1="170" x2="210" y1="135" y2="135" />
	<line x1="100" x2="100" y1="50" y2="110" />
</g>
<line x1="100" x2="100" y1="167" y2="194" style="stroke:black;stroke-width:1;fill:none;marker-end:url(#EndArrow)" />
<line x1="100" x2="100" y1="145" y2="122" style="stroke:black;stroke-width:1;fill:none;marker-end:url(#EndArrow)" />
<text x="83" y="160" style="stroke:none;fill:black;font-size:12">Storage</text>
<g style="stroke:none;fill:blue;font-size:12">
	<text x="80" y="40">Recharge</text>
	<text x="55" y="115">Water</text>
	<text x="115" y="115">Level</text>
	<text x="180" y="155">Discharge</text>
</g>
</svg>
